<svg width="80" height="37" viewBox="0 0 80 37" fill="none" xmlns="http://www.w3.org/2000/svg">
<path d="M12.8602 36.3906C12.8614 36.3848 12.8626 36.3791 12.8637 36.3722V36.3664H12.8614C12.8614 36.3664 12.8626 36.3687 12.8626 36.371C12.8614 36.3779 12.8602 36.3837 12.859 36.3894L12.8602 36.3906Z" fill="#656565"/>
<path d="M79.739 12.9377C79.7366 12.8057 79.5489 12.616 79.5453 12.5975C79.5667 11.887 78.7708 10.7114 78.2956 9.88062C78.1673 9.6573 75.5884 8.77328 75.074 8.53029C74.7461 8.37524 73.0736 7.11286 73.0225 7.07236C72.6518 6.77498 72.6281 5.78104 72.4249 5.68616C71.6528 5.32399 70.3485 3.87647 70.2285 3.74803C69.9885 3.49232 69.0049 3.04684 68.8897 3.08271C69.1736 3.62191 69.5704 5.69426 69.5704 6.532C69.1344 7.357 68.2435 7.52478 67.3145 7.88926C67.191 8.17507 66.3927 8.9399 66.287 8.99197C66.0874 9.08801 65.8795 8.95957 65.6728 9.03826C65.5314 9.09264 64.2449 9.3229 64.1404 9.41547C64.1962 9.54391 64.7961 11.3224 64.8199 11.5503C64.8769 12.0895 65.1287 13.9976 65.1798 14.4153C65.2012 14.5923 65.0266 15.5932 65.0527 15.7332C65.1252 16.1208 65.1846 17.3635 65.2535 17.389C65.2844 17.3751 67.2242 15.6985 67.4868 15.6314C67.5331 15.6244 68.0665 15.4185 68.2672 15.3502C68.6984 15.319 71.4164 15.8107 71.4164 15.8107L70.6514 16.0109C70.6621 16.8475 70.6894 17.8727 70.3877 19.0332C70.7072 19.3711 70.6074 19.4845 70.6419 19.6175C70.6205 20.2505 70.7678 22.2858 70.731 22.9176C70.7025 23.4209 70.6514 23.9242 70.6407 24.4287C70.6312 24.8835 70.2796 26.1748 70.2499 26.3842C70.2059 26.6943 69.4623 28.5584 69.3839 28.6949C69.3506 28.6729 69.5371 27.4568 69.4551 27.2879C69.157 26.6689 67.9714 24.4982 67.8111 23.7137C67.7445 23.488 67.5996 22.6364 67.5925 21.6876C67.5854 20.5536 67.7624 19.4301 68.0415 18.3285C68.0617 18.2464 66.2002 19.1327 66.1337 19.1894C66.0886 19.2276 64.7593 21.5811 64.6666 21.6251C64.4148 21.7466 62.4832 22.4038 62.431 22.4374C62.4226 22.3437 62.4916 19.2531 62.4916 17.1772C62.2611 15.2819 62.4191 11.9287 62.4286 10.7716C62.4286 10.7716 62.6305 10.0773 62.7363 9.83318C62.3431 9.87021 61.2145 9.47911 61.1373 9.47448C60.7156 9.45365 59.5835 8.75014 59.245 8.60782C58.3303 8.22366 57.6805 7.02723 57.317 6.21727C56.9535 6.7773 56.7076 7.55834 56.5781 7.90315C56.4438 8.25953 55.9414 8.7999 55.8463 8.9399L53.992 7.93208C53.992 7.93208 52.7197 7.51205 52.2457 6.88259C52.3491 7.6833 52.5974 8.25259 52.5974 8.25259L53.8803 10.2879C53.8803 10.2879 54.1333 11.9483 54.1488 12.2122C54.1856 12.8104 54.2034 13.4097 54.1832 14.0091C54.1678 14.4801 54.1595 14.951 54.1512 15.4219C54.1476 15.577 54.207 16.1764 54.2355 16.6681C54.125 17.2791 54.3151 18.8955 54.3187 19.3028C54.3305 20.6381 53.9991 23.6153 54.005 23.8629C54.0169 24.3906 53.5239 26.8193 53.5299 26.876C54.1322 26.9581 54.3959 27.0796 54.9875 27.119C55.0219 27.1884 55.7548 28.3131 55.8606 28.4265C56.1243 28.7111 56.8846 29.2712 57.0164 29.3811C57.33 29.6414 57.5819 30.2061 58.0559 30.4711C57.9513 29.6299 57.8373 28.305 57.4274 27.3272C57.3942 26.935 57.2528 25.3324 57.1994 24.9251C57.1507 24.5525 57.0164 23.7414 57.0164 23.7067C57.0236 22.9534 57.0236 22.2002 57.0426 21.4469C57.0604 20.7284 57.1031 18.9464 57.1222 18.2279C57.1281 18.015 56.9535 16.844 56.9273 16.4691C56.8857 15.8628 56.7967 13.2778 56.799 12.9539C56.8014 12.7028 56.8561 12.0374 56.9677 11.8118C57.0936 11.5584 56.3797 10.9104 56.4629 10.6374C56.4664 10.6246 58.588 11.7898 58.9658 12.2422C59.0442 12.3371 59.6061 12.5072 59.5598 12.4239C59.6061 12.5072 59.6085 14.6027 59.6025 15.1859C59.5158 15.6302 59.5859 19.7032 59.5752 21.4677C59.896 22.42 59.6168 24.2795 59.5372 24.2031C59.5419 24.2887 59.9007 27.2301 59.8936 27.2879C59.89 27.3157 59.6358 26.8586 59.5087 26.6631C59.5027 26.6781 59.5918 28.9645 59.5954 29.0467C59.8342 29.1728 62.2718 30.7175 62.3419 30.7939C62.57 31.0415 62.7909 31.2972 63.0368 31.5263C63.3148 31.7855 63.9753 32.2854 64.0204 32.3016C63.9206 30.6539 63.0903 28.9055 63.1247 27.9787C63.139 27.5864 62.3526 24.6683 62.5961 23.2925C62.6198 23.2786 64.0347 24.3894 64.2663 24.6821C64.8448 25.4111 66.0838 27.7288 66.0838 27.7288C66.0838 27.7288 67.2432 31.0855 67.2765 31.3273C67.2919 31.443 67.526 33.7109 67.5759 33.8185C67.7172 34.124 67.1268 36.1929 67.0936 36.3607C68.4585 35.4188 69.1451 33.4402 69.5632 32.8061C69.9006 32.2935 70.984 30.5926 71.4758 30.2177C71.7443 29.6276 72.4523 28.379 72.7682 28.2309C73.7649 27.7612 74.0904 27.3747 74.3648 27.1884C74.2056 26.9905 73.8398 26.3565 73.8219 26.2245C73.7804 25.9191 73.5523 23.7194 73.5428 23.5655C73.5226 23.2416 73.6295 19.8559 73.6295 19.2392C73.6295 19.0668 73.4632 18.2117 73.4786 17.9444C73.4941 17.6887 73.4394 16.8509 73.5178 16.284C73.4762 15.9889 73.3111 14.8758 73.3373 14.4511C73.4299 14.2891 73.9847 13.9432 74.075 13.8541C73.7697 13.8008 72.8942 13.338 72.552 13.338C71.932 13.338 70.6252 12.4528 70.352 12.226C69.916 12.6333 69.5347 13.2373 69.2675 13.5116C69.1166 13.6666 68.2945 14.1769 68.1033 14.2787C68.0582 13.8205 67.9643 13.2952 68.215 12.513C68.2233 12.3013 68.2197 11.0979 68.1924 10.6385H67.1529C67.166 10.6131 68.4644 10.1514 68.5975 10.2254C68.7507 10.1468 70.2582 10.3087 70.4304 10.3122C70.6086 10.3157 72.8205 10.4129 72.9227 10.4869C73.146 10.6489 74.252 10.9058 74.5121 11.0053C75.5646 11.4057 76.6456 11.2957 77.5045 11.9831C77.7409 12.1717 78.7423 13.2292 78.9169 13.2871C79.3921 13.4456 79.752 14.3655 79.796 14.384C79.7912 14.1584 79.7413 13.1448 79.7378 12.94L79.739 12.9377Z" fill="#656565"/>
<path d="M15.1493 23.8884C15.1303 23.4869 15.1636 22.4108 15.1731 22.2742C15.1957 21.9595 15.2634 21.0454 15.2658 20.9262C15.2658 20.9262 15.1351 20.7931 15.1042 20.7075C15.0638 20.3361 15.0626 19.9797 15.0769 19.6349C15.0899 19.2959 14.6932 15.9623 14.8132 15.5723C14.6682 15.511 14.3974 15.3884 14.3594 15.2298C14.597 15.0007 14.6445 14.988 14.7965 14.8214C14.8357 13.8807 14.9046 12.4436 14.9866 11.5052C15.0258 11.0562 15.0911 10.1502 15.3632 9.60522C14.7585 9.43398 12.0999 7.67172 12.0584 7.64164C11.9598 7.57106 11.6295 7.24013 11.5986 7.23434C11.62 7.31303 11.7091 7.63123 11.6996 7.62313C11.5131 7.45535 11.3124 7.3003 11.146 7.11516C10.9382 6.88375 10.9762 6.38041 10.9287 6.3295C10.7196 6.11081 10.4642 6.12122 10.3145 5.86435C10.3288 5.72203 10.4903 4.85768 10.5295 4.70494C10.6519 4.23632 11.0166 3.33263 11.2126 3.09196C10.8883 3.06303 10.3858 3.3604 10.0532 3.54091C9.74311 3.70869 9.58512 4.06044 9.34516 4.31616C9.22518 4.4446 8.05389 5.02083 7.8662 5.18513C7.59179 5.42581 7.41241 5.48251 7.10712 5.68268C6.92061 5.80534 6.37417 6.69514 6.19954 6.83515C6.09857 6.91614 4.87739 8.00612 4.85719 8.02464C4.17414 8.11605 4.03753 8.74782 3.67284 8.74782C3.30814 8.74782 2.32692 9.65035 1.99668 9.81119C1.74722 9.93384 1.2281 10.6929 1.14969 10.7982C1.09505 10.8711 0.827766 11.5572 0.754115 11.6915C0.672148 11.8407 0.622256 12.5026 0.19698 13.1355C0.145899 13.2107 -0.089309 14.2706 0.0366106 14.5275C0.364477 13.9767 0.608 13.4283 0.901417 13.4225C1.15088 13.4178 2.36494 11.8859 2.84486 11.6996C3.36635 11.4971 4.13256 11.0284 4.47112 11.0018C4.95104 10.9637 6.75549 10.4395 7.50626 10.4071C7.55377 10.4048 8.18931 10.4511 8.25465 10.4649C8.10378 10.9382 5.89306 12.6218 4.92253 12.6218C4.92253 13.058 5.05439 13.6562 5.18031 13.9015C5.30148 14.1376 5.43215 14.3701 5.51174 14.6247C5.53431 14.6953 5.78615 14.8677 5.81109 14.9325C5.89662 15.1535 6.09976 15.452 6.21736 15.6846C5.98334 15.6429 5.83485 15.356 5.57589 15.3155C5.66023 15.7505 6.02136 17.4503 6.02136 17.8391C6.02136 18.8886 6.01423 23.3353 5.98928 24.1649C5.98453 24.3443 5.88356 25.889 5.77664 26.2176C5.77664 26.2176 5.52956 26.5254 5.28603 26.6249C4.96411 26.7568 4.70752 26.8783 4.48537 27.119C4.61367 27.1409 5.13754 27.2254 5.35018 27.3886C5.76595 27.7056 6.83033 27.9845 6.83033 27.9845C6.90873 28.077 7.38984 28.6961 7.66663 28.887C7.72959 28.9298 7.84125 29.2388 7.97192 29.4216C8.67755 30.4028 9.50196 31.6282 10.2183 32.9195C10.8075 33.9805 11.8291 35.4246 12.6666 36.363C12.6214 36.1397 12.5811 35.8284 12.5098 35.6884C12.3458 35.3679 12.2864 34.4248 12.3197 34.1275C12.3458 33.8926 12.2722 33.8567 12.2758 33.7236C12.2805 33.5269 12.2294 32.5585 12.2211 32.2692C12.2176 32.1315 12.2401 32.0019 12.2983 31.8711C12.391 31.6605 12.4741 31.288 12.5074 31.0577C12.5347 30.8679 13.3865 29.616 13.4102 29.2064C13.4126 29.1589 14.4805 27.3689 14.4805 27.3689C14.8429 27.1919 15.3228 27.0229 15.4392 26.9651C15.4392 26.9651 15.1672 24.3211 15.147 23.8849L15.1493 23.8884ZM12.1011 22.884C12.0619 23.0298 12.1296 23.1964 12.0049 23.3237C11.9835 23.5077 11.4502 25.4713 11.4026 25.7756C11.411 26.324 11.0748 27.6142 9.99733 28.5329L10.4285 27.4834C10.0852 26.7695 9.28814 25.5916 9.28814 24.6231C9.28814 24.3396 8.97215 24.2517 8.97215 23.9809C8.97215 23.8502 9.1539 23.6766 9.3119 23.6766C9.30596 23.6431 8.99828 20.8776 8.98997 20.4333C8.97571 19.6673 9.23825 17.6135 9.03511 16.947C8.96859 16.7306 9.00898 15.4856 9.05649 15.349C9.06956 15.312 8.97453 14.8341 8.97453 14.4245C8.97453 13.905 8.97096 11.6672 9.07788 11.0308C9.11114 10.8294 9.20617 10.3643 9.22161 10.3296C9.45326 10.3273 11.2541 10.5783 11.3919 10.7172C11.7543 11.0817 11.7709 11.8292 11.8006 12.1092C11.8398 12.4818 11.6735 12.5975 11.7685 12.9631C11.9028 13.478 11.626 15.2865 11.6569 15.408C11.7459 15.7563 11.9847 17.0152 12.031 17.2941C12.1807 18.1851 12.1641 20.2887 12.1772 20.7064C12.1795 20.7746 12.2294 22.4061 12.0999 22.8829L12.1011 22.884Z" fill="#656565"/>
<path d="M23.2652 13.8772C23.5753 12.7583 23.9601 12.3672 24.1146 11.4913C24.2464 10.7392 24.9342 10.1224 25.0198 9.51844C24.5434 9.12041 23.8509 8.46202 23.6109 8.32433C22.5762 7.73074 21.848 6.21263 21.7387 5.9546C21.6782 6.06915 21.4037 6.77845 21.0747 7.05615C20.9298 7.1788 20.8359 7.58032 20.1944 8.19705C19.8191 8.55806 18.1774 9.62721 18.0776 9.67928C17.8447 9.80309 17.1486 9.93963 16.5891 10.0715C17.0168 10.443 17.5573 11.6244 17.5775 11.9576C17.6083 12.4517 17.8958 13.4121 17.777 13.6169C17.6796 13.7846 17.7509 15.2183 17.6737 16.0097C17.6618 16.1347 17.0488 16.6253 16.7233 16.8995C16.6236 16.9828 16.2838 17.6227 16.3099 17.7153C16.6616 17.6331 16.9479 17.5348 17.3898 17.5232C17.4634 17.5209 18.2664 17.3982 18.3532 17.4665C18.3211 17.5116 17.8364 17.6088 17.6475 17.8483C17.7473 18.5333 17.6297 22.457 17.6333 22.8343C17.6404 23.6789 17.4587 25.4123 17.2864 26.3321C17.4254 26.7927 16.6972 29.631 16.5737 30.0881C16.5642 30.1251 16.4953 30.6909 16.4846 30.758C16.9003 30.5208 17.4705 29.9191 17.6606 29.9828C18.0146 29.896 20.1006 28.1094 20.4819 27.8387C20.7551 27.8132 21.8385 28.3189 22.5501 28.4936C22.6855 28.5271 23.4921 29.167 23.4921 29.167C23.8544 28.0851 23.934 27.1976 23.9209 26.7776C23.8806 25.3972 24.9319 22.3853 24.9319 22.3853C24.8772 22.2742 24.876 21.1472 24.7905 20.5154C24.7905 20.5154 23.9305 19.6013 23.839 19.4116C23.7831 21.0165 23.6715 21.9861 23.2462 22.5346C22.9813 22.8748 21.7435 24.7018 21.7031 24.777C21.3301 25.4771 20.2348 26.1123 20.1564 26.1678C20.0661 26.1273 19.7264 26.3553 19.4377 26.456C19.4793 26.2789 19.7704 26.0278 19.9972 25.8878C20.1802 25.5985 20.5995 24.5861 20.6946 24.2702C20.438 22.4362 20.4902 18.6421 20.6268 18.2371C20.5888 17.8252 20.6114 17.5012 20.6114 17.5012C20.7136 17.426 21.2172 17.6007 21.2564 17.6424C21.4132 17.625 22.0844 17.507 22.17 17.5359C22.3101 17.5834 22.7734 17.7257 22.8708 17.75C23.346 16.8139 24.1514 16.0167 24.307 15.8431C24.427 15.7077 24.528 15.5631 24.5672 15.3641C23.1286 15.835 20.7516 15.658 20.7516 15.658C20.7516 15.415 20.8478 13.9189 20.8537 13.8251C20.8692 13.5775 20.5176 12.631 20.6577 11.8037C20.6993 11.5584 20.1362 10.7982 20.2301 10.0854C20.6542 10.3504 21.0771 10.856 21.5273 10.9729C21.8706 11.0632 22.366 11.9391 22.4895 12.0525C22.5834 12.1393 22.6843 12.6356 22.676 12.7676C22.638 13.3935 22.9029 13.6145 22.8578 14.6004C22.9065 14.531 23.2034 14.1075 23.2664 13.8795L23.2652 13.8772Z" fill="#656565"/>
<path d="M66.7847 36.3653V36.3618H66.7835V36.3664C66.7847 36.3803 66.7859 36.3942 66.7871 36.4081C66.7871 36.3954 66.7847 36.3826 66.7835 36.3676V36.3653H66.7847Z" fill="#656565"/>
<path d="M40.932 10.5066L41.9179 9.10536C41.9179 9.10536 42.841 7.78165 42.9431 6.98094C42.4691 7.6104 41.3763 7.90661 41.3763 7.90661L39.0099 8.54764L37.5096 8.46433C36.2931 7.93323 35.0803 6.74374 35.0328 6.70208C34.9995 6.75762 34.5125 7.66594 34.2143 8.02579C33.9387 8.35904 33.2663 9.35182 33.163 9.49761C33.1071 9.4791 31.3027 8.05125 31.0877 7.83372C30.8394 7.58147 29.579 6.08882 29.2927 5.60979C29.2464 5.685 28.5135 7.84413 28.2818 8.00497C28.0739 8.14845 27.4669 9.22801 27.139 9.41893C27.0464 9.47332 26.1899 9.65614 25.6791 9.51266C25.6126 9.8054 25.919 10.9451 25.963 11.2286C26.0224 11.6105 26.1709 14.2972 26.178 14.3678C26.3004 14.4303 26.437 14.4396 26.5118 14.5842C26.5082 14.6363 26.2778 15.7158 26.2612 15.9449C26.2612 15.9449 26.3645 18.5033 26.3847 18.8504C26.4073 19.2345 26.3906 21.9236 26.3906 22.8829C26.3906 23.3133 25.8335 26.9836 25.8014 27.1502C25.7682 27.3203 25.7694 28.4357 25.8893 28.9437C26.0058 28.7377 26.1519 28.5931 26.3122 28.4623C26.4263 28.3686 27.1141 27.8398 27.3327 27.6559C27.5679 27.458 28.0858 26.707 28.2093 26.6075C28.3234 26.5161 28.7843 26.007 28.7843 26.007C28.8865 26.0325 29.8475 26.5393 29.8998 26.5427C29.8404 26.0394 29.3996 22.6433 29.3996 22.6433C29.3628 22.442 28.8187 17.2108 29.2868 14.0253C29.2452 13.5046 29.1133 11.3571 29.2096 10.9683C29.2559 10.9926 30.0019 11.4705 30.6945 11.5549C31.4821 11.651 32.0737 12.1242 32.0737 12.1242L32.929 12.4227L31.8955 12.3788C32.12 13.1239 32.0582 14.0091 32.2019 14.2764C32.2887 16.1173 31.8848 20.6994 31.8278 21.0975C31.9501 21.3081 32.1414 21.5418 31.9703 21.8993C31.9073 23.2971 31.5866 25.2584 31.5866 25.2584L31.9929 27.0634C31.9929 27.0634 32.5643 28.2818 33.0727 28.9194C33.0727 27.6038 33.4695 26.9743 33.4695 26.9743C33.6132 26.5022 33.8009 25.6726 33.8009 25.6726L34.3984 24.9483C34.5612 25.0015 35.464 24.6833 35.464 24.6833C35.3452 24.2552 35.249 22.6491 35.1361 22.1354C35.1337 22.1273 34.8914 19.1998 34.8914 19.1998C35.0114 17.7639 34.9021 15.1662 34.9508 14.524C34.9769 14.1908 35.0862 11.6429 35.1361 11.1465C35.5139 11.158 36.7422 11.681 37.4122 11.9749L38.9565 12.2735L37.9372 12.4355C37.9135 13.0522 37.8398 14.7462 37.7626 14.9938C37.86 15.0979 37.9729 15.3999 38.0192 15.5087C38.0192 15.5087 37.9253 16.0074 37.7472 16.2377C37.8755 17.5625 37.9432 20.5039 37.8374 21.3647C37.7662 21.9421 37.8529 23.8386 37.6153 25.823C37.8161 25.742 38.5751 25.5175 39.0313 25.1589C39.3414 24.9147 40.3915 24.6648 40.3915 24.6648C40.5447 24.6914 41.3062 25.1947 41.4939 25.2121C41.4974 24.9008 41.122 22.7938 41.0555 22.4675C41.0448 22.4177 40.7395 21.6343 40.7395 21.6343C40.7621 21.5522 40.951 21.2294 40.9379 21.0778C40.5507 16.6172 40.698 12.9353 40.7407 12.675C40.9415 12.2041 40.907 11.0493 40.9296 10.5054L40.932 10.5066Z" fill="#656565"/>
<path d="M52.7672 10.1803C52.1899 10.237 51.6209 10.0172 51.5924 9.95467C51.2075 10.0669 50.7454 9.91764 50.5328 9.48605C48.6451 8.52913 48.0298 6.71019 47.2398 6.21495C47.0141 6.84672 46.9155 7.42758 46.3893 8.02811C45.7953 8.70617 44.9745 9.7059 44.9091 9.68738C44.7072 9.62837 43.6226 9.32869 42.9384 9.24653C43.2223 11.0609 43.3423 12.1751 43.3577 12.4991C43.3743 12.8567 43.4159 12.8995 43.2995 13.0869C43.6464 15.3756 43.5418 19.4486 43.4337 20.3268C43.4254 20.3963 43.5858 20.6994 43.5798 20.8024C43.5692 20.9563 43.1439 23.5806 42.9004 24.4634C43.4753 24.556 44.8058 24.8395 45.3594 25.3289C46.451 26.2917 47.285 26.4039 47.9229 27.6292C48.7996 26.7788 48.6451 25.6541 49.422 24.7411C49.5943 24.6775 51.0542 24.2887 51.0911 24.2656C51.179 24.21 51.5722 24.0596 52.1151 24.0885C52.0937 24.0272 51.7718 21.9491 51.7789 21.4515C51.7908 20.586 51.6197 16.3094 51.6019 15.5654C51.5924 15.1384 51.5579 14.7092 51.647 14.2857C51.6541 14.2521 51.5924 12.5778 51.6114 12.1682C52.0545 11.6429 52.671 10.8179 52.7672 10.1803ZM49.0431 12.3869C48.9706 12.8879 48.8162 13.9524 48.8008 14.082C48.9219 14.7832 49.1274 18.0265 48.8732 18.7891C48.9398 19.1686 49.1227 20.8718 49.1868 21.1033C49.3781 21.7963 48.9207 23.1004 48.815 23.3839C48.7723 23.4984 48.8316 23.6014 48.8269 23.7113C47.3669 22.8354 46.7801 22.9905 46.0282 22.2025L45.0089 21.6841L46.0935 21.8843C46.1897 21.4168 46.3465 20.6126 46.3192 20.3963C46.2657 19.9635 46.2408 17.3624 46.2408 17.1749C46.2408 16.6704 45.8737 13.5741 46.2325 12.4482C46.1671 12.2885 46.0436 10.0796 46.0436 10.0796C46.1363 10.0519 48.1973 11.7968 48.467 11.9183C48.7604 12.0513 48.8518 11.9807 49.0787 12.1242L49.934 12.4227L49.0407 12.3846L49.0431 12.3869Z" fill="#656565"/>
<path d="M18.8595 4.01715V0.660597C18.8595 0.464204 18.8834 0.261858 19.057 0.0654645H18.2311C18.3269 0.261858 18.3508 0.464204 18.3508 0.660597V2.79117L16.1903 0.0654645H15.6637C15.8372 0.261858 15.8612 0.464204 15.8612 0.660597V3.27918C15.8612 3.47558 15.8372 3.67792 15.6637 3.87431H16.4896C16.3938 3.67792 16.3699 3.47558 16.3699 3.27918V1.3569L17.9438 3.32679C18.2012 3.64816 18.5543 3.97549 18.8595 4.01715Z" fill="#656565"/>
<path d="M22.5054 3.87431H24.4205C24.5342 3.87431 24.6958 3.88622 24.8035 3.95168L24.9771 3.01137C24.7975 3.24347 24.5941 3.43392 24.1931 3.43392H23.3971V2.07701C23.4629 2.07106 23.5348 2.06511 23.6006 2.06511H23.9716C24.223 2.06511 24.3966 2.12462 24.5043 2.20794V1.49973C24.3966 1.58305 24.223 1.63662 23.9716 1.63662H23.6006C23.5348 1.63662 23.4629 1.63066 23.3971 1.62471V0.505863H24.1392C24.4923 0.505863 24.6659 0.678451 24.7736 0.797478L24.7137 0C24.606 0.0595132 24.4444 0.0654645 24.3307 0.0654645H22.5054C22.6789 0.261858 22.7089 0.464204 22.7089 0.660597V3.27918C22.7089 3.47558 22.6789 3.67792 22.5054 3.87431Z" fill="#656565"/>
<path d="M29.222 3.87431H30.3232C30.1497 3.67792 30.1198 3.47558 30.1198 3.27918V0.505863H30.7003C30.9636 0.505863 31.1671 0.678451 31.2748 0.880797V0C31.1671 0.053562 31.0534 0.0654645 30.9097 0.0654645H28.6296C28.4979 0.0654645 28.3782 0.053562 28.2765 0V0.880797C28.3842 0.678451 28.5877 0.505863 28.845 0.505863H29.4255V3.27918C29.4255 3.47558 29.3956 3.67792 29.222 3.87431Z" fill="#656565"/>
<path d="M37.128 3.87431H38.1634C37.9898 3.67792 37.9599 3.47558 37.9599 3.27918V0.660597C37.9599 0.464204 37.9898 0.261858 38.1634 0.0654645H37.128C37.2357 0.261858 37.2657 0.58323 37.2657 0.779624V1.54735H35.6079V0.779624C35.6079 0.58323 35.6378 0.261858 35.7456 0.0654645H34.7102C34.8838 0.261858 34.9137 0.464204 34.9137 0.660597V3.27918C34.9137 3.47558 34.8838 3.67792 34.7102 3.87431H35.7456C35.6378 3.67792 35.6079 3.35655 35.6079 3.16016V1.97584H37.2657V3.16016C37.2657 3.35655 37.2357 3.67792 37.128 3.87431Z" fill="#656565"/>
<path d="M41.6513 3.87431H43.5664C43.6801 3.87431 43.8417 3.88622 43.9494 3.95168L44.123 3.01137C43.9434 3.24347 43.7399 3.43392 43.339 3.43392H42.543V2.07701C42.6088 2.07106 42.6807 2.06511 42.7465 2.06511H43.1175C43.3689 2.06511 43.5425 2.12462 43.6502 2.20794V1.49973C43.5425 1.58305 43.3689 1.63662 43.1175 1.63662H42.7465C42.6807 1.63662 42.6088 1.63066 42.543 1.62471V0.505863H43.2851C43.6382 0.505863 43.8118 0.678451 43.9195 0.797478L43.8596 0C43.7519 0.0595132 43.5903 0.0654645 43.4766 0.0654645H41.6513C41.8248 0.261858 41.8548 0.464204 41.8548 0.660597V3.27918C41.8548 3.47558 41.8248 3.67792 41.6513 3.87431Z" fill="#656565"/>
<path d="M47.6047 3.87431H48.6161C48.5203 3.67792 48.4964 3.35655 48.4964 3.16016V0.49396H49.0589C49.6933 0.49396 49.8669 0.862942 49.8669 1.29144C49.8669 1.48188 49.8489 1.64852 49.7292 1.92823C49.4958 1.99369 49.3462 2.02345 49.0709 2.02345H48.7118L49.5676 3.36845C49.7053 3.5827 49.7592 3.68387 49.7053 3.87431H50.9142C50.6569 3.75529 50.3696 3.46962 50.1841 3.17206L49.6395 2.32102C50.196 2.19009 50.5611 1.7854 50.5731 1.22002C50.5791 0.565376 50.1003 0.0654645 49.1966 0.0654645H47.6047C47.7782 0.261858 47.8022 0.464204 47.8022 0.660597V3.27918C47.8022 3.47558 47.7782 3.67792 47.6047 3.87431Z" fill="#656565"/>
<path d="M56.5831 3.87431H57.6663C57.421 3.67792 57.3312 3.46962 57.2594 3.27323L56.2719 0.660597C56.2001 0.470155 56.1462 0.261858 56.1223 0.0654645H55.1767C55.3742 0.261858 55.3563 0.464204 55.2844 0.660597L54.3029 3.27323C54.2311 3.46962 54.1414 3.67792 53.896 3.87431H54.7518C54.7279 3.67792 54.7757 3.46962 54.8416 3.27918L54.9912 2.85664H56.3677L56.5113 3.27918C56.5771 3.47558 56.607 3.67792 56.5831 3.87431ZM55.1288 2.47575L55.6854 0.904602L56.23 2.47575H55.1288Z" fill="#656565"/>
<path d="M60.8615 3.87431H61.8908C61.7951 3.67792 61.7592 3.35655 61.7592 3.16016V2.35673L62.1242 1.94608L63.01 3.33869C63.1357 3.54104 63.1895 3.66007 63.0998 3.87431H64.4044C64.0393 3.68982 63.9077 3.51128 63.764 3.27918L62.6688 1.55925L63.5306 0.58323C63.7341 0.345177 63.9496 0.172588 64.2967 0.0654645H62.9621C63.0459 0.309469 62.992 0.464204 62.8125 0.660597L61.7592 1.85086V0.779624C61.7592 0.58323 61.7951 0.261858 61.8908 0.0654645H60.8615C61.035 0.261858 61.0649 0.464204 61.0649 0.660597V3.27918C61.0649 3.47558 61.035 3.67792 60.8615 3.87431Z" fill="#656565"/>
</svg>
