<svg width="30" height="45" viewBox="0 0 30 45" fill="none" xmlns="http://www.w3.org/2000/svg">
<path d="M14.6484 0.000488281C14.7064 -0.00330134 14.7555 0.0150719 14.79 0.0375977C14.8476 0.0751985 14.8733 0.128825 14.8809 0.14502C14.9007 0.187472 14.9117 0.237559 14.9189 0.275879C14.9498 0.440046 14.9748 0.769724 14.9951 1.24072C15.0155 1.7143 15.058 2.25545 15.0879 2.44287C15.1212 2.6515 15.1773 3.15119 15.2139 3.5542C15.293 4.42515 15.4273 5.55076 15.5605 6.46533C15.6145 6.83591 15.6655 7.29247 15.6729 7.48193C15.6797 7.65654 15.7072 8.19401 15.7344 8.67627C15.7618 9.16415 15.7782 10.0013 15.7705 10.5396L15.7578 11.3931L16.2217 11.728C16.3768 11.84 16.5242 11.9509 16.6367 12.0396C16.6926 12.0836 16.7418 12.1235 16.7793 12.1558C16.7978 12.1718 16.8153 12.1884 16.8301 12.2026C16.8373 12.2096 16.8514 12.2251 16.8662 12.2437C16.9153 12.2511 16.9588 12.2664 16.9883 12.2798C17.0329 12.3001 17.0799 12.3269 17.126 12.3569C17.2191 12.4177 17.3258 12.5008 17.4316 12.5962L17.4355 12.5991C17.4491 12.599 17.463 12.5999 17.4766 12.6021C17.5387 12.6122 17.5826 12.6436 17.6064 12.6646C17.6418 12.6958 17.6655 12.7353 17.6836 12.771C17.7212 12.7781 17.7592 12.7906 17.7939 12.812C17.8259 12.8318 17.866 12.8691 17.8936 12.9224C17.918 12.9395 17.957 12.9617 18.0029 12.9829C18.1319 13.0424 18.3166 13.155 18.4238 13.2397C18.848 13.5748 19.5993 13.9973 20.4121 14.3755C21.2236 14.753 22.0742 15.0757 22.6875 15.2212C23.232 15.3504 23.8203 15.4988 23.9932 15.5503C24.7817 15.7853 25.4237 15.8634 26.9092 15.894C27.757 15.9115 28.3573 15.9306 28.7373 15.9536C28.9254 15.965 29.068 15.9782 29.1611 15.9937C29.2013 16.0003 29.2571 16.0113 29.3037 16.0337C29.3168 16.04 29.3944 16.0757 29.4287 16.1665C29.4664 16.2668 29.428 16.346 29.3926 16.3911L29.3613 16.4243C29.3389 16.4436 29.3159 16.4547 29.3105 16.4575C29.3009 16.4625 29.2912 16.4677 29.2832 16.4712C29.2668 16.4783 29.2472 16.4859 29.2266 16.4937C29.1846 16.5095 29.1282 16.5289 29.0625 16.5513C28.9305 16.5962 28.7529 16.6549 28.5557 16.7173C28.1608 16.8423 27.6823 16.9873 27.3291 17.0864C26.2215 17.3973 24.7791 17.8911 24.1104 18.187C23.6632 18.3849 23.1155 18.6197 22.8936 18.7085C22.6888 18.7905 22.1842 19.0427 21.7754 19.269C21.3594 19.4993 20.607 19.879 20.1006 20.1157C19.5991 20.3503 19.0246 20.6517 18.8242 20.7817C18.6049 20.924 18.1931 21.1692 17.9062 21.3286C17.6258 21.4845 17.1128 21.7858 16.7676 21.9966C16.4201 22.2088 15.9249 22.5094 15.667 22.6646C15.4129 22.8174 15.0577 23.0448 14.8809 23.1685C14.691 23.3013 14.3836 23.4862 14.1914 23.5835C13.8759 23.743 13.5016 24.0005 13.0117 24.4009C12.8496 24.5333 12.5184 24.7598 12.2705 24.9087C12.0312 25.0524 11.7329 25.2502 11.6104 25.3452C11.473 25.4519 11.2302 25.6254 11.0674 25.7329C10.9036 25.8411 10.5585 26.1347 10.2461 26.4233C10.0924 26.5654 9.95194 26.702 9.85059 26.8071C9.83191 26.8265 9.81496 26.8454 9.7998 26.8618C9.83165 26.8915 9.86772 26.9265 9.90918 26.9585C10.1527 27.1461 10.3879 27.3416 10.6221 27.5513C10.7077 27.628 11.0158 27.8515 11.4775 28.1724C11.9322 28.4883 12.5219 28.8891 13.1602 29.313C13.3142 29.4153 13.4926 29.5417 13.5693 29.604C13.6141 29.5986 13.6659 29.6066 13.7197 29.6411C13.7702 29.6736 13.7955 29.7189 13.8096 29.7524L13.8115 29.7534C13.8629 29.7759 13.9489 29.8016 14.0684 29.8276C14.3043 29.879 14.6303 29.9228 14.9756 29.9507C15.3201 29.9785 15.6762 29.9901 15.9707 29.981C16.118 29.9764 16.2467 29.9664 16.3486 29.9517C16.457 29.9359 16.5144 29.9173 16.5342 29.9067C16.6135 29.8644 16.7968 29.7657 16.9414 29.687C17.0149 29.647 17.0857 29.6098 17.1406 29.5815C17.1679 29.5675 17.1926 29.5548 17.2119 29.5454C17.2212 29.5409 17.2307 29.5365 17.2393 29.5327C17.2426 29.5312 17.2624 29.5219 17.2842 29.5161L17.3994 29.4712C17.454 29.4474 17.5237 29.4155 17.6025 29.3765C17.7532 29.3019 17.9168 29.2134 18.0342 29.1411C18.2059 29.0354 18.4433 28.9083 18.5684 28.8589C18.6044 28.8446 18.6345 28.8284 18.6553 28.8159C18.6793 28.7714 18.7143 28.7348 18.7559 28.7114C18.7894 28.6927 18.8247 28.6822 18.8584 28.6782C18.8828 28.6379 18.9124 28.5976 18.9404 28.563C18.9417 28.5613 18.943 28.5588 18.9443 28.5571C18.9445 28.5542 18.944 28.551 18.9443 28.5483C18.9486 28.5095 18.9617 28.4754 18.9766 28.4468L19.0166 28.3853C19.0159 28.3864 19.0177 28.3839 19.0215 28.3765C19.0267 28.3662 19.0328 28.351 19.04 28.3325C19.0547 28.2948 19.0683 28.2497 19.0771 28.2095C19.0912 28.1455 19.1117 28.0818 19.1357 28.0298C19.1472 28.0049 19.1639 27.9736 19.1865 27.9448C19.1971 27.9315 19.214 27.9127 19.2373 27.895C19.2526 27.864 19.2733 27.8155 19.291 27.7583C19.3943 27.4232 19.4095 27.3423 19.4414 26.9673C19.4548 26.8106 19.4679 26.6549 19.4746 26.5845C19.4708 26.5717 19.4663 26.5532 19.458 26.5308C19.438 26.4768 19.4077 26.4067 19.374 26.3354C19.2981 26.1746 19.2148 25.9447 19.1895 25.8149C19.1814 25.7735 19.1688 25.729 19.1562 25.6929C19.15 25.6749 19.1438 25.6607 19.1396 25.6519L19.1455 25.6577L19.0967 25.5767C19.0845 25.5472 19.0763 25.5152 19.0732 25.4829C19.0675 25.4213 19.0798 25.3278 19.1543 25.2554L19.1934 25.2251C19.2847 25.1663 19.3819 25.1923 19.4141 25.2036C19.4599 25.2198 19.499 25.2458 19.5244 25.2651C19.5788 25.3066 19.6351 25.3642 19.6846 25.4214C19.7353 25.4801 19.786 25.5476 19.8281 25.6138C19.8675 25.6757 19.9099 25.7534 19.9297 25.8296C19.9297 25.8296 19.931 25.8333 19.9336 25.8403C19.9364 25.8478 19.9401 25.8578 19.9453 25.8696C19.9561 25.894 19.9715 25.9246 19.9893 25.9585C20.0249 26.0267 20.07 26.105 20.1152 26.1743L20.1924 26.3013C20.2162 26.3435 20.2383 26.3855 20.2568 26.4243C20.2752 26.4628 20.2921 26.5017 20.3047 26.5376C20.314 26.5644 20.3268 26.6106 20.3291 26.6597C20.3494 26.6803 20.3646 26.7002 20.374 26.7153C20.3921 26.7444 20.4063 26.7763 20.417 26.8042C20.4384 26.8601 20.4568 26.9275 20.4717 26.9976C20.5018 27.1393 20.5263 27.3216 20.5439 27.5171C20.5792 27.9077 20.5889 28.3788 20.5537 28.7319C20.5239 29.0308 20.4979 29.2491 20.416 29.4165C20.3255 29.6013 20.1783 29.7054 20.002 29.8198C19.8189 29.9387 19.5586 30.1089 19.4238 30.1978C19.278 30.2939 19.0223 30.4344 18.8477 30.5142C18.6887 30.5867 18.4235 30.7227 18.2637 30.814C18.0864 30.9152 17.7241 31.0835 17.4541 31.1919C16.7879 31.4594 16.5472 31.586 16.4033 31.7104C16.304 31.7964 16.0855 31.939 15.915 32.0347C15.7497 32.1275 15.5064 32.2649 15.374 32.3394C15.262 32.4023 15.1178 32.4711 15.0273 32.5073C14.9933 33.2257 14.9577 33.9117 14.9268 34.4243C14.9107 34.69 14.8966 34.9108 14.8848 35.0649C14.8789 35.1415 14.8728 35.2046 14.8682 35.2485C14.8659 35.2695 14.8631 35.2904 14.8604 35.3071C14.8592 35.3143 14.8575 35.328 14.8535 35.3423L14.8516 35.3462V35.3481C14.8493 35.368 14.846 35.3997 14.8428 35.4409C14.8363 35.5232 14.829 35.6389 14.8223 35.7661C14.8085 36.0262 14.7914 36.2912 14.7754 36.4917C14.7674 36.5914 14.7596 36.6774 14.7529 36.7388C14.7497 36.7686 14.7457 36.7964 14.7422 36.8179C14.7406 36.8275 14.7383 36.843 14.7344 36.8579C14.7344 36.8579 14.7316 36.8622 14.7305 36.8657L14.7002 37.2593C14.6479 38.0551 14.6116 38.5722 14.585 38.8999C14.5707 39.076 14.5465 39.404 14.5303 39.6284C14.5137 39.8567 14.4796 40.1901 14.4551 40.3726C14.4318 40.545 14.4089 40.7885 14.4033 40.9087C14.3903 41.1903 14.3266 41.9992 14.2783 42.5044C14.2587 42.7101 14.2077 42.9966 14.1611 43.1499L13.8779 44.0845L13.5664 43.0864C13.4078 42.5782 13.3936 42.3581 13.2979 39.729C13.2385 38.1002 13.2018 37.1575 13.1689 36.6157C13.1524 36.3438 13.1368 36.18 13.1221 36.0835C13.1184 36.0596 13.113 36.0421 13.1104 36.0298C13.1089 36.0285 13.1069 36.0273 13.1055 36.0259C13.0942 36.0149 13.0746 35.9937 13.0586 35.9634C13.0422 35.9322 13.021 35.8737 13.0381 35.8022C13.0469 35.7657 13.0619 35.7352 13.0801 35.7124C13.0752 35.6797 13.0739 35.6431 13.0762 35.606C13.0548 35.5855 13.036 35.5637 13.0215 35.5415C13.0028 35.5129 12.9812 35.471 12.9717 35.4204L12.9668 35.3677L12.9756 35.2983C12.9816 35.2761 12.9926 35.2535 13.0068 35.231C13.0061 35.2278 13.0045 35.2243 13.0039 35.2212C12.9989 35.1949 12.9954 35.1601 12.999 35.1226C13.0003 35.1094 13.004 35.0899 13.0107 35.0679C12.9687 34.9746 12.9419 34.8732 12.9365 34.7847C12.934 34.7423 12.9345 34.6811 12.957 34.6216C12.9605 34.6125 12.9663 34.6025 12.9717 34.5923C12.9536 34.566 12.9395 34.5404 12.9297 34.519C12.9075 34.4709 12.892 34.4184 12.8828 34.3696C12.8743 34.3244 12.8676 34.264 12.8779 34.2046C12.8814 34.1849 12.8902 34.1563 12.9053 34.1255C12.8979 34.1022 12.893 34.0794 12.8887 34.061C12.8779 34.0155 12.8673 33.9614 12.8584 33.9038C12.8404 33.7881 12.8253 33.6469 12.8164 33.5073C12.8081 33.3769 12.7968 33.2461 12.7852 33.1421C12.7793 33.0901 12.7737 33.0458 12.7686 33.0122C12.7642 32.9839 12.7605 32.97 12.7598 32.9663C12.7518 32.9418 12.7426 32.9101 12.7383 32.8774C12.7364 32.8633 12.7301 32.8132 12.749 32.7563C12.7383 32.722 12.7301 32.6875 12.7285 32.6538C12.7272 32.6241 12.7269 32.5516 12.7686 32.4849C12.7607 32.4532 12.7539 32.4217 12.749 32.3931C12.7352 32.311 12.7266 32.2172 12.7266 32.1294C12.7265 32.0515 12.6973 31.9571 12.5928 31.8286C12.4851 31.6964 12.3079 31.5408 12.0352 31.3462C11.9205 31.2644 11.7763 31.1521 11.7139 31.0933C11.6709 31.0527 11.5608 30.9608 11.4717 30.8931C11.2255 30.7058 10.9976 30.5122 10.833 30.354C10.7516 30.2757 10.681 30.2011 10.6309 30.1382C10.6155 30.1189 10.6013 30.0961 10.5869 30.0737C10.5841 30.073 10.5808 30.0736 10.5781 30.0728C10.5097 30.0526 10.4529 30.0129 10.4102 29.9712C10.3817 29.9434 10.3513 29.9011 10.3262 29.8511C10.3178 29.849 10.3093 29.8485 10.3018 29.8462C10.2259 29.8234 10.1485 29.7829 10.083 29.7397C10.0168 29.6961 9.94983 29.6413 9.89648 29.5815C9.86977 29.5516 9.84277 29.5153 9.82129 29.4751C9.81879 29.4703 9.81699 29.4647 9.81445 29.4595C9.79392 29.4516 9.77356 29.4457 9.75684 29.437C9.69799 29.4064 9.63498 29.3617 9.57715 29.312C9.20722 28.994 9.16443 28.96 8.98438 28.8325C8.91905 28.7863 8.85696 28.7323 8.80957 28.6802C8.78631 28.6546 8.76258 28.6249 8.74316 28.5933C8.73947 28.5872 8.7348 28.5781 8.72949 28.5679C8.6973 28.5585 8.66556 28.5437 8.63672 28.5239C8.62462 28.5156 8.6119 28.5055 8.59961 28.4937C8.55173 28.4829 8.51007 28.4598 8.47852 28.4292C8.45199 28.4034 8.43466 28.3738 8.42188 28.3452C8.40789 28.3398 8.39383 28.3361 8.38184 28.3306C8.32477 28.3043 8.26072 28.2664 8.20117 28.2271C8.14087 28.1872 8.07839 28.1419 8.02441 28.0962C7.99833 28.0741 7.9701 28.0479 7.94336 28.02C7.93224 28.0174 7.92275 28.0171 7.91699 28.0151C7.85894 27.995 7.81081 27.9564 7.7793 27.9272C7.69309 27.8476 7.61059 27.7802 7.54492 27.7329C7.5119 27.7091 7.48598 27.6922 7.46777 27.6821C7.45509 27.6751 7.45079 27.6734 7.45312 27.6743L7.47656 27.6802C7.42855 27.6733 7.38469 27.6521 7.36621 27.6431C7.33927 27.6299 7.30962 27.6128 7.28027 27.5952C7.22112 27.5597 7.1518 27.5141 7.08594 27.4653C6.95937 27.3716 6.87886 27.3514 6.81055 27.355C6.69241 27.3614 6.47375 27.361 6.32031 27.355L6.0498 27.3442L5.96875 26.9194L6.17871 26.8257C6.24239 26.7975 6.30769 26.7731 6.3623 26.7554C6.3661 26.7541 6.3702 26.7527 6.37402 26.7515C6.39844 26.6955 6.43438 26.6531 6.45996 26.6284C6.51014 26.5802 6.57473 26.5396 6.64355 26.5142C6.65315 26.5106 6.66036 26.5043 6.66699 26.5005C6.66785 26.4986 6.66992 26.4956 6.66992 26.4956C6.67788 26.4771 6.687 26.4606 6.69434 26.4487C6.70917 26.4249 6.72751 26.4003 6.74512 26.3784C6.7813 26.3336 6.83084 26.2789 6.88672 26.2202C6.99962 26.1016 7.15302 25.9514 7.31836 25.7964C7.64698 25.4884 8.04044 25.1449 8.27637 24.9761C8.47094 24.8368 8.70537 24.6449 8.79492 24.5562C8.90815 24.444 9.14717 24.2488 9.33008 24.1167C9.50406 23.9911 9.72799 23.8124 9.82422 23.7231C9.88445 23.6673 9.94929 23.6157 10.0068 23.5786C10.0349 23.5605 10.0676 23.5416 10.1006 23.5278C10.1169 23.521 10.1393 23.5133 10.165 23.5083C10.1736 23.5066 10.1861 23.5053 10.2012 23.5044C10.2261 23.4913 10.2707 23.4658 10.3467 23.4155C10.5132 23.3054 10.8006 23.1036 11.3076 22.7427C11.5109 22.598 11.968 22.2727 12.3232 22.02C12.5027 21.8924 12.6806 21.7704 12.8223 21.6772C12.8929 21.6308 12.9564 21.5907 13.0068 21.5601C13.0495 21.5341 13.1024 21.5028 13.1426 21.4878C13.1437 21.4873 13.1544 21.4823 13.1807 21.4673C13.2056 21.453 13.2369 21.4338 13.2725 21.4106C13.3441 21.364 13.4288 21.3042 13.5068 21.2446C13.9695 20.8915 14.3285 20.6639 14.7744 20.4419C14.981 20.339 15.3398 20.1321 15.5654 19.9858C15.81 19.8273 16.3621 19.5354 16.7959 19.3335C17.2281 19.1323 17.622 18.9466 17.6758 18.9194C17.7161 18.899 17.7605 18.8815 17.8008 18.8687C17.8235 18.8614 17.8564 18.8534 17.8916 18.8481C17.8996 18.8448 17.913 18.8396 17.9316 18.8306C17.9727 18.8106 18.0299 18.7806 18.0996 18.7427C18.2384 18.6672 18.419 18.5643 18.6025 18.4565C18.786 18.3488 18.9712 18.237 19.1191 18.144C19.1932 18.0975 19.2575 18.0562 19.3066 18.0229C19.3311 18.0064 19.351 17.9922 19.3662 17.981C19.3738 17.9754 19.3804 17.9708 19.3848 17.9673C19.3888 17.9641 19.3906 17.9624 19.3906 17.9624C19.4511 17.9074 19.5494 17.8547 19.6367 17.813C19.7321 17.7674 19.8443 17.7215 19.9521 17.686C20.4222 17.5314 20.5318 17.4842 21.1807 17.1519C21.2418 17.1205 21.3049 17.0949 21.373 17.0737C21.3216 17.0568 21.2751 17.0391 21.2402 17.021C21.2168 17.0088 21.1856 16.9951 21.1553 16.9839C21.1404 16.9784 21.1269 16.9743 21.1162 16.9712C21.1063 16.9683 21.1006 16.9673 21.1006 16.9673C21.0623 16.9611 21.0166 16.9439 20.9883 16.9331C20.9516 16.9192 20.9068 16.9005 20.8574 16.8794C20.7581 16.8369 20.6342 16.7809 20.5098 16.7212C20.3944 16.6658 20.2817 16.6198 20.1953 16.5903C20.1534 16.5761 20.1215 16.5666 20.1006 16.562C20.0473 16.5726 19.9844 16.572 19.9219 16.5435C19.8553 16.5129 19.8088 16.4578 19.7852 16.3931C19.7816 16.3897 19.7772 16.3856 19.7725 16.3813C19.7397 16.3523 19.6908 16.3147 19.6357 16.2769C19.5811 16.2393 19.5252 16.205 19.4805 16.1812C19.4579 16.1691 19.4408 16.1607 19.4307 16.1567L19.46 16.1597C19.4206 16.1596 19.3886 16.1492 19.376 16.145C19.3592 16.1395 19.3436 16.1332 19.3311 16.1274C19.3056 16.1157 19.2779 16.1005 19.252 16.0854C19.1994 16.055 19.1383 16.0152 19.0801 15.9751C19.0217 15.9349 18.9618 15.8916 18.9141 15.853C18.8905 15.834 18.8668 15.813 18.8467 15.7935C18.8417 15.7886 18.8366 15.7827 18.8311 15.7769C18.7635 15.7737 18.7006 15.7543 18.6523 15.731C18.6058 15.7084 18.5571 15.6739 18.5146 15.6304C18.4999 15.6287 18.4867 15.6296 18.4775 15.6274C18.4429 15.6192 18.4105 15.6045 18.3848 15.5923C18.3307 15.5666 18.2688 15.5299 18.21 15.4878C18.1182 15.4221 17.9721 15.3381 17.8965 15.3062C17.832 15.2788 17.7036 15.205 17.5635 15.1206C17.4165 15.0321 17.2379 14.9206 17.0635 14.8071C16.8922 14.6957 16.7331 14.5948 16.6152 14.522C16.5563 14.4856 16.5087 14.4571 16.4756 14.438C16.4631 14.4308 16.4536 14.4248 16.4473 14.4214C16.4378 14.4181 16.4292 14.4159 16.4238 14.4136C16.4115 14.4082 16.3996 14.4013 16.3896 14.396C16.3687 14.3849 16.3431 14.3699 16.3164 14.354C16.2622 14.3218 16.192 14.279 16.1201 14.2329C15.9784 14.142 15.815 14.0317 15.7314 13.9673C15.7031 13.9455 15.5103 13.8094 15.2988 13.6616L15.0361 13.478L14.9092 13.5552C14.541 13.7773 12.8437 14.975 11.9385 15.6528C11.7855 15.7674 11.5715 15.9092 11.457 15.9692C11.3742 16.0127 11.1957 16.1315 11.0693 16.231C10.2373 16.8856 8.86642 17.5401 7.96387 17.7056C7.59989 17.7723 7.14839 17.8553 6.96094 17.8901C6.73806 17.9314 6.37925 17.919 5.97949 17.8755C5.57155 17.8311 5.09557 17.7514 4.625 17.644C4.36267 17.5842 3.98699 17.5066 3.79297 17.4722C3.48794 17.4181 3.00509 17.3122 2.5752 17.2095C2.3596 17.1579 2.15485 17.1068 1.99121 17.063C1.83454 17.021 1.69846 16.9811 1.63086 16.9526C1.58798 16.9346 1.53843 16.9179 1.49512 16.9058C1.47357 16.8997 1.45509 16.8957 1.44141 16.8931C1.42563 16.89 1.42353 16.8901 1.43066 16.8901C1.36775 16.8901 1.30109 16.8737 1.24316 16.8364C1.22734 16.8262 1.21016 16.8123 1.19336 16.7954C1.16896 16.7899 1.14804 16.784 1.13379 16.7778C1.07616 16.753 1.02526 16.7122 0.985352 16.6655C0.984692 16.6649 0.981671 16.6623 0.978516 16.6597C0.974758 16.6566 0.96995 16.6537 0.966797 16.6519C0.932228 16.6469 0.903532 16.6385 0.887695 16.6323C0.860686 16.6218 0.833403 16.6081 0.807617 16.5942C0.755585 16.5663 0.694521 16.5286 0.629883 16.4849C0.499736 16.3968 0.339581 16.2764 0.175781 16.1411C0.144304 16.1151 0.11614 16.0893 0.0927734 16.0649C0.0737573 16.045 0.0409272 16.0084 0.0205078 15.9614C0.0103768 15.938 -0.00802753 15.8856 0.00390625 15.8208C0.0187488 15.7416 0.0706605 15.6846 0.128906 15.6558C0.176733 15.6323 0.221778 15.6301 0.243164 15.6304C0.267791 15.6307 0.289679 15.6348 0.305664 15.6382C0.364479 15.6508 0.432142 15.68 0.494141 15.7114C0.560842 15.7452 0.63808 15.7901 0.720703 15.8442L0.833008 15.9077C0.957954 15.9697 1.11233 16.0242 1.21582 16.0415C1.38822 16.0702 1.61954 16.1201 1.73438 16.1538L1.74316 16.1528C1.76264 16.1547 1.79004 16.1568 1.8252 16.1587C1.89562 16.1626 1.99053 16.1665 2.10254 16.1694C2.32634 16.1752 2.61283 16.1783 2.89551 16.1792C3.17831 16.1801 3.45614 16.1787 3.66211 16.1743C3.76537 16.1721 3.84829 16.1689 3.9043 16.1655C3.92115 16.1645 3.93406 16.1634 3.94336 16.1626C3.94762 16.1611 3.95089 16.1594 3.95312 16.1587C3.97054 16.1534 3.98759 16.1505 3.99707 16.1489C4.01874 16.1452 4.04604 16.1421 4.07422 16.1392C4.13212 16.1332 4.21323 16.1262 4.31055 16.1196C4.50677 16.1063 4.77767 16.0918 5.07715 16.0776C5.67625 16.0493 6.39809 16.023 6.88281 16.0161C7.04077 16.0139 7.18281 16.0082 7.2832 16.0005C7.31965 15.9977 7.34819 15.9933 7.36914 15.9907C7.37265 15.9886 7.37597 15.9855 7.37891 15.9839C7.41209 15.9659 7.44603 15.9569 7.46875 15.9517C7.5179 15.9403 7.57487 15.9351 7.62988 15.9351C7.64078 15.9349 7.67392 15.9265 7.70996 15.8979L7.80273 15.8052C7.86721 15.7494 7.95166 15.6968 8.03027 15.6528C8.14461 15.5889 8.28226 15.5241 8.41992 15.4712C8.69843 15.3642 8.99206 15.2368 9.22852 15.1235C9.34686 15.0668 9.44968 15.0147 9.52734 14.9712C9.56601 14.9495 9.59713 14.9306 9.62012 14.9155C9.64122 14.9017 9.6501 14.8949 9.65137 14.894L9.73145 14.8325C9.7604 14.8157 9.7918 14.8024 9.82324 14.7935C9.82981 14.7916 9.83712 14.7902 9.84473 14.7886C9.87859 14.7565 9.92023 14.7294 9.95703 14.7075C10.0389 14.6588 10.1524 14.6053 10.2812 14.5542C10.3882 14.5118 10.5067 14.4556 10.6094 14.3999C10.7164 14.3418 10.7909 14.2928 10.8213 14.2661C10.8811 14.2134 10.9479 14.1648 11.0088 14.1284C11.039 14.1104 11.0714 14.093 11.1035 14.0796C11.1099 14.0769 11.118 14.074 11.127 14.0708C11.1471 14.0243 11.1756 13.9874 11.2002 13.9624C11.2236 13.9387 11.2507 13.9169 11.2803 13.8989L11.377 13.855C11.3796 13.8537 11.3844 13.8517 11.3906 13.8481C11.4047 13.8401 11.4229 13.8278 11.4434 13.813C11.4847 13.783 11.5288 13.7451 11.5635 13.7095C11.6234 13.6479 11.6912 13.5938 11.7607 13.5571C11.7908 13.5413 11.8385 13.5197 11.8945 13.5103C11.9196 13.4811 11.9494 13.4503 11.9805 13.4214C12.0589 13.3484 12.1675 13.2594 12.2881 13.1714C12.3997 13.09 12.4908 13.018 12.5479 12.9683L12.5488 12.9644C12.5646 12.9124 12.596 12.8699 12.6113 12.8501C12.6511 12.7988 12.711 12.7382 12.7773 12.6792C12.853 12.6119 12.9327 12.5538 13.0078 12.5142C13.0353 12.4997 13.0658 12.4858 13.0977 12.4751C13.1099 12.4498 13.1236 12.4255 13.1367 12.4048C13.181 12.335 13.2424 12.259 13.3047 12.1919C13.3672 12.1245 13.439 12.0567 13.5059 12.0063C13.5385 11.9818 13.5777 11.9559 13.6191 11.937L13.624 11.9351C13.6348 11.8129 13.6455 11.5954 13.6582 11.2114C13.6718 10.8013 13.7116 10.302 13.75 10.1001C13.7812 9.93562 13.8106 9.54883 13.8115 9.24756C13.8132 8.69759 13.8325 8.40503 14.0088 6.18701C14.056 5.59237 14.0745 4.84674 14.0547 4.38232C14.0452 4.1588 14.0381 3.95226 14.0352 3.80029C14.0337 3.72501 14.0337 3.66113 14.0342 3.61475C14.0344 3.59208 14.035 3.56988 14.0361 3.55225C14.0366 3.54404 14.0372 3.53162 14.0391 3.51904C14.04 3.51309 14.0421 3.50135 14.0459 3.48779C14.0462 3.4868 14.0472 3.483 14.0479 3.48096C14.0483 3.47834 14.0493 3.47496 14.0498 3.47119C14.0528 3.44887 14.0565 3.41412 14.0605 3.36963C14.0687 3.28105 14.0774 3.15923 14.085 3.02686C14.1007 2.75158 14.1455 2.3632 14.1855 2.15771C14.2225 1.96862 14.2567 1.72952 14.2627 1.63135C14.2857 1.25189 14.3511 0.598828 14.3916 0.352051C14.4001 0.300186 14.4097 0.252508 14.4209 0.213379C14.4264 0.194078 14.4339 0.170582 14.4443 0.147949C14.452 0.131506 14.4746 0.0857218 14.5215 0.0493164C14.5487 0.0282226 14.592 0.00430346 14.6484 0.000488281ZM14.7676 35.4634C14.7766 35.4568 14.7856 35.452 14.791 35.4468L14.792 35.4448C14.7861 35.4506 14.7773 35.4563 14.7676 35.4634ZM11.3369 30.1196C11.3644 30.1416 11.3964 30.1632 11.4268 30.1812C11.4399 30.167 11.4499 30.1524 11.458 30.1372C11.4426 30.1246 11.4267 30.1096 11.4082 30.0962C11.3953 30.0868 11.3811 30.0804 11.3691 30.0728C11.3553 30.0881 11.345 30.1039 11.3369 30.1196ZM10.2148 29.27L10.2158 29.271C10.2185 29.2746 10.2224 29.2799 10.2275 29.2856C10.241 29.3007 10.2605 29.3165 10.2822 29.3335C10.2685 29.3025 10.241 29.2795 10.2129 29.2642C10.2132 29.2662 10.2146 29.268 10.2148 29.27ZM10.2217 29.314L10.2178 29.2837C10.2172 29.2812 10.2168 29.2769 10.2168 29.2769L10.2148 29.2739C10.2166 29.2887 10.2216 29.3023 10.2217 29.314ZM0.977539 16.6538C0.981673 16.6546 0.988171 16.6553 0.996094 16.6558C0.988344 16.6555 0.980937 16.6537 0.973633 16.6528L0.977539 16.6538ZM10.0684 14.8208C10.0676 14.8203 10.0638 14.8179 10.0596 14.8159C10.057 14.8147 10.053 14.8129 10.0479 14.811C10.0543 14.8142 10.0619 14.817 10.0684 14.8208ZM16.459 14.4253C16.4618 14.4262 16.4882 14.435 16.5234 14.4351C16.491 14.435 16.4653 14.4265 16.4551 14.4233L16.459 14.4253ZM12.8184 12.8286C12.8136 12.8275 12.809 12.8264 12.8047 12.8257L12.7705 12.8218C12.7795 12.8218 12.7967 12.824 12.8184 12.8286ZM16.8838 12.2642C16.8792 12.2571 16.8748 12.2531 16.873 12.2515L16.8711 12.2505C16.8747 12.2553 16.8804 12.259 16.8838 12.2642ZM13.834 11.9204C13.8334 11.9202 13.8297 11.9191 13.8271 11.9185C13.8244 11.9178 13.82 11.9182 13.8154 11.9175C13.8213 11.9191 13.828 11.9183 13.834 11.9204Z" fill="#75D78C"/>
</svg>
