<svg width="36" height="43" viewBox="0 0 36 43" fill="none" xmlns="http://www.w3.org/2000/svg">
<g filter="url(#filter0_d_508_2791)">
<path fill-rule="evenodd" clip-rule="evenodd" d="M17.5979 10.5243C17.5786 10.642 17.5463 10.9626 17.535 11.1494C17.5315 11.2053 17.5135 11.3296 17.4947 11.4256C17.476 11.5215 17.4545 11.7093 17.4469 11.8429C17.4393 11.9766 17.4289 12.0899 17.4238 12.0948C17.4187 12.0997 17.4222 12.2847 17.4317 12.5059C17.4417 12.7424 17.4321 13.1178 17.4084 13.417C17.3205 14.5219 17.3115 14.6622 17.3106 14.9306C17.3102 15.0836 17.2955 15.2834 17.2782 15.3747C17.2608 15.466 17.2411 15.7071 17.2344 15.9106C17.2197 16.3527 17.2163 16.3791 17.1754 16.3638C17.128 16.3461 16.9126 16.5785 16.9385 16.6193C16.953 16.642 16.9451 16.6481 16.9156 16.6371C16.8889 16.6271 16.8254 16.6605 16.7593 16.7193C16.6981 16.7738 16.6636 16.8184 16.6826 16.8184C16.7016 16.8184 16.623 16.887 16.5079 16.971C16.3928 17.0549 16.3061 17.1356 16.3153 17.1504C16.3245 17.1651 16.3118 17.1695 16.287 17.1603C16.2602 17.1503 16.2094 17.1771 16.1615 17.2264C16.1172 17.2719 16.0545 17.3174 16.0221 17.3274C15.9896 17.3374 15.9631 17.3643 15.9631 17.3872C15.9631 17.4101 15.9437 17.4289 15.9201 17.4289C15.8964 17.4289 15.8362 17.4648 15.7864 17.5088C15.7365 17.5528 15.6012 17.6262 15.4856 17.672C15.363 17.7206 15.2835 17.7679 15.2948 17.7855C15.3054 17.8023 15.2996 17.8072 15.2819 17.7965C15.2642 17.7859 15.2311 17.7953 15.2083 17.8174C15.1537 17.8704 14.8413 18.0201 14.5586 18.1286C14.4311 18.1776 14.3042 18.2485 14.2682 18.291C14.2291 18.3371 14.1738 18.3664 14.1261 18.3664C14.0831 18.3664 14.0478 18.3746 14.0478 18.3846C14.0477 18.3946 13.9164 18.4046 13.756 18.4069C13.2773 18.4137 12.3271 18.4587 12.3271 18.4745C12.3271 18.4948 11.233 18.4913 11.1632 18.4708C11.1121 18.4558 11.0018 18.4321 10.9182 18.4182C10.8335 18.4041 10.7056 18.3532 10.6296 18.3033C10.4762 18.2027 10.3787 18.1819 10.4895 18.2733C10.6484 18.4046 10.7962 18.5045 10.8313 18.5045C10.8517 18.5045 10.8851 18.524 10.9054 18.5478C10.9258 18.5716 10.9543 18.5839 10.9689 18.5752C10.9835 18.5664 10.9955 18.5731 10.9955 18.59C10.9955 18.6069 11.017 18.6208 11.0433 18.6208C11.0696 18.6208 11.1336 18.6386 11.1855 18.6605C11.2862 18.7029 11.9403 18.8593 12.2374 18.912C12.3361 18.9295 12.5247 18.9684 12.6563 18.9984C13.1169 19.1035 13.5864 19.1546 13.7734 19.1199C13.8668 19.1026 14.0913 19.0613 14.2723 19.0281C14.7007 18.9496 15.3664 18.633 15.7686 18.3166C15.8344 18.2648 15.9287 18.2012 15.9781 18.1753C16.0275 18.1494 16.1284 18.0829 16.2025 18.0274C16.6524 17.6905 17.5007 17.0917 17.6891 16.978L17.8141 16.9025L18.0034 17.0348C18.1074 17.1076 18.206 17.1775 18.2225 17.1902C18.2974 17.2479 18.5342 17.3998 18.5493 17.3998C18.5585 17.3998 18.7064 17.4911 18.878 17.6028C19.0496 17.7144 19.2282 17.8219 19.2748 17.8416C19.3215 17.8614 19.4013 17.9073 19.4521 17.9437C19.5029 17.9802 19.5515 18.0032 19.5601 17.9949C19.5686 17.9866 19.5926 17.9998 19.6134 18.0241C19.6343 18.0485 19.6754 18.0684 19.705 18.0684C19.7345 18.0684 19.7632 18.0787 19.7687 18.0913C19.7812 18.12 19.9806 18.2573 20.0099 18.2573C20.0585 18.2575 20.2724 18.4045 20.2724 18.4378C20.2724 18.4575 20.2918 18.4664 20.3155 18.4576C20.3392 18.4487 20.4579 18.4892 20.5794 18.5475C20.7008 18.6058 20.8194 18.6566 20.843 18.6603C20.8666 18.6641 20.9128 18.6812 20.9457 18.6983C21.0069 18.7301 21.227 18.7799 21.2674 18.771C21.2798 18.7684 21.2899 18.7797 21.2899 18.7962C21.2899 18.8166 21.3079 18.817 21.3458 18.7973C21.3765 18.7813 21.4072 18.7735 21.4138 18.78C21.4205 18.7864 21.4966 18.7949 21.583 18.7987C21.8525 18.8107 21.7058 18.8647 21.3566 18.8821C21.1106 18.8943 21.0075 18.9124 20.9158 18.9594C20.5899 19.1263 20.5299 19.1524 20.2888 19.2317C20.1908 19.264 20.0831 19.3154 20.0494 19.3461C19.9733 19.4154 19.2966 19.8127 19.2548 19.8127C19.238 19.8127 19.2008 19.8246 19.1722 19.839C19.1436 19.8535 18.9452 19.9468 18.7312 20.0464C18.5173 20.146 18.2479 20.2887 18.1327 20.3634C18.0175 20.4381 17.8357 20.5428 17.7287 20.5961C17.5141 20.703 17.3415 20.8124 17.1158 20.9847C17.0337 21.0473 16.9395 21.1086 16.9063 21.121C16.8731 21.1334 16.7013 21.2464 16.5245 21.3721C16.3477 21.4978 16.1203 21.6595 16.0193 21.7315C15.5158 22.0898 15.4413 22.1391 15.4156 22.1307C15.4003 22.1258 15.345 22.1615 15.2927 22.21C15.2403 22.2586 15.125 22.3507 15.0364 22.4146C14.9479 22.4786 14.834 22.572 14.7833 22.6222C14.7327 22.6724 14.6105 22.7713 14.5117 22.842C14.2897 23.0009 13.7486 23.5081 13.7486 23.5573C13.7486 23.5772 13.7149 23.6059 13.6738 23.6211C13.6327 23.6363 13.599 23.6687 13.599 23.6931C13.599 23.7175 13.5889 23.7351 13.5765 23.7322C13.5642 23.7293 13.507 23.7479 13.4494 23.7734L13.3446 23.8199L13.4793 23.8252C13.5533 23.8281 13.6584 23.8281 13.7127 23.8252C13.7807 23.8216 13.8457 23.8453 13.9215 23.9015C13.9821 23.9463 14.0469 23.9852 14.0655 23.9879C14.0977 23.9925 14.1847 24.0551 14.2757 24.1392C14.2985 24.1603 14.3174 24.1669 14.3177 24.1537C14.3179 24.1406 14.3288 24.1463 14.3419 24.1663C14.3815 24.2268 14.5637 24.3471 14.591 24.3307C14.605 24.3223 14.6165 24.3366 14.6165 24.3624C14.6165 24.3883 14.6299 24.4014 14.6464 24.3915C14.6628 24.3816 14.6763 24.3874 14.6763 24.4043C14.6763 24.4213 14.6965 24.4351 14.7212 24.4351C14.7459 24.4351 14.7661 24.4523 14.7661 24.4733C14.7661 24.4943 14.8099 24.5424 14.8633 24.5802C14.9575 24.6469 14.9818 24.6665 15.1664 24.8252C15.2137 24.8659 15.2642 24.8921 15.2786 24.8835C15.293 24.8748 15.3047 24.8866 15.3047 24.9096C15.3047 24.9792 15.4988 25.1071 15.5417 25.0658C15.5696 25.0389 15.5736 25.0414 15.5595 25.0773C15.5388 25.1302 15.6158 25.2053 15.6622 25.1774C15.6796 25.167 15.6864 25.1759 15.6777 25.1978C15.6639 25.2328 15.864 25.4251 16.1037 25.6074C16.1495 25.6422 16.2077 25.6903 16.2331 25.7143C16.2586 25.7383 16.3252 25.7906 16.3812 25.8306C16.6582 26.0282 16.7711 26.167 16.7711 26.3098C16.7711 26.3841 16.7859 26.4718 16.804 26.5046C16.8279 26.5481 16.8279 26.559 16.804 26.5446C16.7588 26.5175 16.7624 26.5947 16.8085 26.643C16.8387 26.6746 16.838 26.6778 16.8053 26.6597C16.7754 26.6432 16.7694 26.6516 16.7825 26.6918C16.7923 26.7218 16.8072 26.8551 16.8157 26.9881C16.8241 27.1211 16.8449 27.2552 16.862 27.2861C16.8839 27.3258 16.8833 27.3423 16.8599 27.3423C16.8272 27.3423 16.8489 27.4573 16.8874 27.4877C16.9174 27.5113 16.9229 27.5749 16.8949 27.5749C16.8648 27.5749 16.8695 27.6537 16.9041 27.7287C16.9173 27.7574 16.9202 27.7886 16.9105 27.798C16.9008 27.8074 16.9072 27.8411 16.9248 27.8729C16.9478 27.9146 16.9475 27.9252 16.9237 27.911C16.9056 27.9001 16.8908 27.9043 16.8908 27.9203C16.8908 27.9363 16.9049 27.9578 16.9222 27.9682C16.9394 27.9786 16.9498 28.0088 16.9454 28.0353C16.9409 28.0619 16.9478 28.1 16.9607 28.12C16.975 28.1421 16.9688 28.1565 16.9449 28.1567C16.9174 28.1571 16.9158 28.1635 16.9397 28.1785C16.9806 28.2043 16.9965 28.4659 17.0555 30.0855C17.1035 31.4017 17.1105 31.4913 17.1838 31.7263L17.2319 31.8804L17.2689 31.7587C17.2892 31.6917 17.3135 31.5569 17.3228 31.4592C17.3468 31.2086 17.378 30.8084 17.3843 30.671C17.3872 30.607 17.3994 30.4828 17.4112 30.3948C17.4231 30.3069 17.4394 30.1434 17.4476 30.0314C17.4557 29.9195 17.4682 29.756 17.4753 29.668C17.4885 29.506 17.5064 29.2499 17.5324 28.854C17.5403 28.7341 17.5488 28.636 17.5512 28.636C17.5581 28.636 17.5793 28.3699 17.593 28.1127C17.5997 27.9848 17.6079 27.8801 17.6111 27.8801C17.6211 27.8801 17.6623 27.1955 17.6972 26.4517C17.6981 26.4336 17.7224 26.4112 17.7512 26.402C17.78 26.3928 17.8574 26.355 17.9232 26.318C17.9891 26.2809 18.1103 26.2129 18.1926 26.1667C18.2749 26.1205 18.3759 26.0536 18.417 26.018C18.5049 25.9419 18.6424 25.8732 18.9706 25.7414C19.1023 25.6886 19.2774 25.6069 19.3597 25.5599C19.442 25.5129 19.5766 25.4437 19.6589 25.4061C19.7412 25.3685 19.8636 25.3015 19.9309 25.2571C19.9981 25.2128 20.1278 25.128 20.219 25.0688C20.3955 24.9542 20.4129 24.9187 20.4437 24.6096C20.4769 24.2766 20.4252 23.7026 20.3583 23.6624C20.344 23.6538 20.3323 23.6239 20.3323 23.596C20.3323 23.5681 20.2921 23.4838 20.243 23.4085C20.1939 23.3333 20.1459 23.2416 20.1364 23.2047C20.1147 23.1207 19.962 22.9439 19.9344 22.9708C19.9231 22.9817 19.9253 23.005 19.9393 23.0225C19.9533 23.04 19.973 23.0967 19.9831 23.1487C19.9933 23.2007 20.0309 23.3053 20.0668 23.3813C20.1027 23.4572 20.1305 23.5325 20.1287 23.5484C20.1268 23.5644 20.1187 23.656 20.1105 23.7519C20.094 23.9461 20.0849 23.9938 20.0309 24.1688C20.0104 24.2353 19.9833 24.2898 19.9708 24.2898C19.9582 24.2898 19.9386 24.3323 19.9272 24.3843C19.9157 24.4362 19.8928 24.4951 19.8762 24.5151C19.8597 24.5351 19.8579 24.5516 19.8722 24.5519C19.8866 24.5521 19.8849 24.5619 19.8684 24.5737C19.8519 24.5854 19.8229 24.6212 19.8039 24.6532C19.7848 24.6851 19.7545 24.7081 19.7365 24.704C19.7185 24.7001 19.7038 24.7083 19.7038 24.7223C19.7038 24.7364 19.6601 24.7652 19.6066 24.7863C19.5531 24.8075 19.4413 24.8666 19.3581 24.9178C19.2337 24.9945 19.0208 25.0999 18.9557 25.117C18.9474 25.1192 18.8817 25.1531 18.8096 25.1923C18.7375 25.2315 18.646 25.281 18.6063 25.3022C18.3856 25.42 17.1003 25.3161 17.1003 25.1804C17.1003 25.1649 17.0924 25.1599 17.0828 25.1692C17.0732 25.1785 17.0429 25.167 17.0155 25.1435C16.9881 25.1201 16.8983 25.0561 16.816 25.0015C16.1797 24.5789 15.6387 24.203 15.5408 24.1153C15.4263 24.0128 15.3115 23.9173 15.1925 23.8257C15.1226 23.7718 15.0653 23.7118 15.0653 23.6924C15.0653 23.6449 15.5948 23.1555 15.7748 23.0367C15.8537 22.9846 15.9721 22.9001 16.0379 22.8489C16.1038 22.7978 16.2564 22.6967 16.3771 22.6242C16.4978 22.5517 16.658 22.4422 16.733 22.3808C16.9793 22.1796 17.1723 22.0462 17.3396 21.9616C17.4302 21.9157 17.5783 21.8265 17.6689 21.7632C17.7594 21.6998 17.9381 21.585 18.0661 21.508C18.1941 21.4311 18.4401 21.2818 18.6128 21.1763C18.7856 21.0708 19.0424 20.9204 19.1834 20.842C19.3245 20.7636 19.527 20.6429 19.6335 20.5738C19.7399 20.5048 20.0316 20.3526 20.2816 20.2356C20.5317 20.1187 20.9034 19.9305 21.1077 19.8174C21.312 19.7043 21.5679 19.5763 21.6763 19.5329C21.7847 19.4895 22.0552 19.3736 22.2774 19.2753C22.6166 19.1251 23.3398 18.8777 23.8934 18.7223C24.2416 18.6246 24.8387 18.4356 24.8616 18.4158C24.8982 18.3843 24.5552 18.3635 23.712 18.3462C22.9695 18.3309 22.6387 18.2916 22.2325 18.1705C22.1502 18.146 21.8607 18.0732 21.5891 18.0087C20.9585 17.8591 19.8679 17.3518 19.4256 17.0022C19.3795 16.9658 19.2953 16.9146 19.2385 16.8884C19.1817 16.8622 19.1352 16.8292 19.1352 16.815C19.1352 16.8009 19.1165 16.7893 19.0935 16.7893C19.0706 16.7893 19.0434 16.7678 19.033 16.7415C19.0226 16.7152 19.0066 16.7011 18.9974 16.71C18.9881 16.719 18.9564 16.7045 18.9268 16.6778C18.8277 16.5885 18.7343 16.5276 18.6967 16.5276C18.6762 16.5276 18.6486 16.511 18.6355 16.4906C18.6223 16.4702 18.4869 16.3635 18.3345 16.2535L18.0574 16.0534L18.0643 15.571C18.0681 15.3057 18.0602 14.8924 18.0467 14.6525C18.0332 14.4127 18.0194 14.1445 18.0159 14.0565C18.0125 13.9686 17.9878 13.7462 17.961 13.5623C17.8945 13.1056 17.8277 12.544 17.7881 12.1087C17.77 11.9089 17.7421 11.6636 17.7261 11.5636C17.7101 11.4637 17.6887 11.1889 17.6786 10.9531C17.6582 10.481 17.6298 10.3299 17.5979 10.5243ZM14.4219 24.1444C14.4321 24.1604 14.4262 24.1735 14.4087 24.1735C14.3913 24.1735 14.3771 24.1604 14.3771 24.1444C14.3771 24.1284 14.383 24.1153 14.3902 24.1153C14.3975 24.1153 14.4118 24.1284 14.4219 24.1444ZM15.4475 24.9239C15.4548 24.9452 15.4411 24.9516 15.412 24.9408C15.3859 24.9311 15.3646 24.9104 15.3646 24.8948C15.3646 24.8565 15.4326 24.8804 15.4475 24.9239ZM15.7993 25.2145C15.7901 25.2234 15.766 25.2145 15.7456 25.1946C15.7163 25.1659 15.7198 25.1626 15.7624 25.1783C15.7919 25.1892 15.8085 25.2055 15.7993 25.2145ZM16.0678 25.3602C16.0528 25.3755 15.9332 25.2952 15.9332 25.2699C15.9332 25.257 15.9655 25.2699 16.0051 25.2986C16.0446 25.3274 16.0728 25.3551 16.0678 25.3602Z" fill="white"/>
<path fill-rule="evenodd" clip-rule="evenodd" d="M17.5979 10.5243C17.5786 10.642 17.5463 10.9626 17.535 11.1494C17.5315 11.2053 17.5135 11.3296 17.4947 11.4256C17.476 11.5215 17.4545 11.7093 17.4469 11.8429C17.4393 11.9766 17.4289 12.0899 17.4238 12.0948C17.4187 12.0997 17.4222 12.2847 17.4317 12.5059C17.4417 12.7424 17.4321 13.1178 17.4084 13.417C17.3205 14.5219 17.3115 14.6622 17.3106 14.9306C17.3102 15.0836 17.2955 15.2834 17.2782 15.3747C17.2608 15.466 17.2411 15.7071 17.2344 15.9106C17.2197 16.3527 17.2163 16.3791 17.1754 16.3638C17.128 16.3461 16.9126 16.5785 16.9385 16.6193C16.953 16.642 16.9451 16.6481 16.9156 16.6371C16.8889 16.6271 16.8254 16.6605 16.7593 16.7193C16.6981 16.7738 16.6636 16.8184 16.6826 16.8184C16.7016 16.8184 16.623 16.887 16.5079 16.971C16.3928 17.0549 16.3061 17.1356 16.3153 17.1504C16.3245 17.1651 16.3118 17.1695 16.287 17.1603C16.2602 17.1503 16.2094 17.1771 16.1615 17.2264C16.1172 17.2719 16.0545 17.3174 16.0221 17.3274C15.9896 17.3374 15.9631 17.3643 15.9631 17.3872C15.9631 17.4101 15.9437 17.4289 15.9201 17.4289C15.8964 17.4289 15.8362 17.4648 15.7864 17.5088C15.7365 17.5528 15.6012 17.6262 15.4856 17.672C15.363 17.7206 15.2835 17.7679 15.2948 17.7855C15.3054 17.8023 15.2996 17.8072 15.2819 17.7965C15.2642 17.7859 15.2311 17.7953 15.2083 17.8174C15.1537 17.8704 14.8413 18.0201 14.5586 18.1286C14.4311 18.1776 14.3042 18.2485 14.2682 18.291C14.2291 18.3371 14.1738 18.3664 14.1261 18.3664C14.0831 18.3664 14.0478 18.3746 14.0478 18.3846C14.0477 18.3946 13.9164 18.4046 13.756 18.4069C13.2773 18.4137 12.3271 18.4587 12.3271 18.4745C12.3271 18.4948 11.233 18.4913 11.1632 18.4708C11.1121 18.4558 11.0018 18.4321 10.9182 18.4182C10.8335 18.4041 10.7056 18.3532 10.6296 18.3033C10.4762 18.2027 10.3787 18.1819 10.4895 18.2733C10.6484 18.4046 10.7962 18.5045 10.8313 18.5045C10.8517 18.5045 10.8851 18.524 10.9054 18.5478C10.9258 18.5716 10.9543 18.5839 10.9689 18.5752C10.9835 18.5664 10.9955 18.5731 10.9955 18.59C10.9955 18.6069 11.017 18.6208 11.0433 18.6208C11.0696 18.6208 11.1336 18.6386 11.1855 18.6605C11.2862 18.7029 11.9403 18.8593 12.2374 18.912C12.3361 18.9295 12.5247 18.9684 12.6563 18.9984C13.1169 19.1035 13.5864 19.1546 13.7734 19.1199C13.8668 19.1026 14.0913 19.0613 14.2723 19.0281C14.7007 18.9496 15.3664 18.633 15.7686 18.3166C15.8344 18.2648 15.9287 18.2012 15.9781 18.1753C16.0275 18.1494 16.1284 18.0829 16.2025 18.0274C16.6524 17.6905 17.5007 17.0917 17.6891 16.978L17.8141 16.9025L18.0034 17.0348C18.1074 17.1076 18.206 17.1775 18.2225 17.1902C18.2974 17.2479 18.5342 17.3998 18.5493 17.3998C18.5585 17.3998 18.7064 17.4911 18.878 17.6028C19.0496 17.7144 19.2282 17.8219 19.2748 17.8416C19.3215 17.8614 19.4013 17.9073 19.4521 17.9437C19.5029 17.9802 19.5515 18.0032 19.5601 17.9949C19.5686 17.9866 19.5926 17.9998 19.6134 18.0241C19.6343 18.0485 19.6754 18.0684 19.705 18.0684C19.7345 18.0684 19.7632 18.0787 19.7687 18.0913C19.7812 18.12 19.9806 18.2573 20.0099 18.2573C20.0585 18.2575 20.2724 18.4045 20.2724 18.4378C20.2724 18.4575 20.2918 18.4664 20.3155 18.4576C20.3392 18.4487 20.4579 18.4892 20.5794 18.5475C20.7008 18.6058 20.8194 18.6566 20.843 18.6603C20.8666 18.6641 20.9128 18.6812 20.9457 18.6983C21.0069 18.7301 21.227 18.7799 21.2674 18.771C21.2798 18.7684 21.2899 18.7797 21.2899 18.7962C21.2899 18.8166 21.3079 18.817 21.3458 18.7973C21.3765 18.7813 21.4072 18.7735 21.4138 18.78C21.4205 18.7864 21.4966 18.7949 21.583 18.7987C21.8525 18.8107 21.7058 18.8647 21.3566 18.8821C21.1106 18.8943 21.0075 18.9124 20.9158 18.9594C20.5899 19.1263 20.5299 19.1524 20.2888 19.2317C20.1908 19.264 20.0831 19.3154 20.0494 19.3461C19.9733 19.4154 19.2966 19.8127 19.2548 19.8127C19.238 19.8127 19.2008 19.8246 19.1722 19.839C19.1436 19.8535 18.9452 19.9468 18.7312 20.0464C18.5173 20.146 18.2479 20.2887 18.1327 20.3634C18.0175 20.4381 17.8357 20.5428 17.7287 20.5961C17.5141 20.703 17.3415 20.8124 17.1158 20.9847C17.0337 21.0473 16.9395 21.1086 16.9063 21.121C16.8731 21.1334 16.7013 21.2464 16.5245 21.3721C16.3477 21.4978 16.1203 21.6595 16.0193 21.7315C15.5158 22.0898 15.4413 22.1391 15.4156 22.1307C15.4003 22.1258 15.345 22.1615 15.2927 22.21C15.2403 22.2586 15.125 22.3507 15.0364 22.4146C14.9479 22.4786 14.834 22.572 14.7833 22.6222C14.7327 22.6724 14.6105 22.7713 14.5117 22.842C14.2897 23.0009 13.7486 23.5081 13.7486 23.5573C13.7486 23.5772 13.7149 23.6059 13.6738 23.6211C13.6327 23.6363 13.599 23.6687 13.599 23.6931C13.599 23.7175 13.5889 23.7351 13.5765 23.7322C13.5642 23.7293 13.507 23.7479 13.4494 23.7734L13.3446 23.8199L13.4793 23.8252C13.5533 23.8281 13.6584 23.8281 13.7127 23.8252C13.7807 23.8216 13.8457 23.8453 13.9215 23.9015C13.9821 23.9463 14.0469 23.9852 14.0655 23.9879C14.0977 23.9925 14.1847 24.0551 14.2757 24.1392C14.2985 24.1603 14.3174 24.1669 14.3177 24.1537C14.3179 24.1406 14.3288 24.1463 14.3419 24.1663C14.3815 24.2268 14.5637 24.3471 14.591 24.3307C14.605 24.3223 14.6165 24.3366 14.6165 24.3624C14.6165 24.3883 14.6299 24.4014 14.6464 24.3915C14.6628 24.3816 14.6763 24.3874 14.6763 24.4043C14.6763 24.4213 14.6965 24.4351 14.7212 24.4351C14.7459 24.4351 14.7661 24.4523 14.7661 24.4733C14.7661 24.4943 14.8099 24.5424 14.8633 24.5802C14.9575 24.6469 14.9818 24.6665 15.1664 24.8252C15.2137 24.8659 15.2642 24.8921 15.2786 24.8835C15.293 24.8748 15.3047 24.8866 15.3047 24.9096C15.3047 24.9792 15.4988 25.1071 15.5417 25.0658C15.5696 25.0389 15.5736 25.0414 15.5595 25.0773C15.5388 25.1302 15.6158 25.2053 15.6622 25.1774C15.6796 25.167 15.6864 25.1759 15.6777 25.1978C15.6639 25.2328 15.864 25.4251 16.1037 25.6074C16.1495 25.6422 16.2077 25.6903 16.2331 25.7143C16.2586 25.7383 16.3252 25.7906 16.3812 25.8306C16.6582 26.0282 16.7711 26.167 16.7711 26.3098C16.7711 26.3841 16.7859 26.4718 16.804 26.5046C16.8279 26.5481 16.8279 26.559 16.804 26.5446C16.7588 26.5175 16.7624 26.5947 16.8085 26.643C16.8387 26.6746 16.838 26.6778 16.8053 26.6597C16.7754 26.6432 16.7694 26.6516 16.7825 26.6918C16.7923 26.7218 16.8072 26.8551 16.8157 26.9881C16.8241 27.1211 16.8449 27.2552 16.862 27.2861C16.8839 27.3258 16.8833 27.3423 16.8599 27.3423C16.8272 27.3423 16.8489 27.4573 16.8874 27.4877C16.9174 27.5113 16.9229 27.5749 16.8949 27.5749C16.8648 27.5749 16.8695 27.6537 16.9041 27.7287C16.9173 27.7574 16.9202 27.7886 16.9105 27.798C16.9008 27.8074 16.9072 27.8411 16.9248 27.8729C16.9478 27.9146 16.9475 27.9252 16.9237 27.911C16.9056 27.9001 16.8908 27.9043 16.8908 27.9203C16.8908 27.9363 16.9049 27.9578 16.9222 27.9682C16.9394 27.9786 16.9498 28.0088 16.9454 28.0353C16.9409 28.0619 16.9478 28.1 16.9607 28.12C16.975 28.1421 16.9688 28.1565 16.9449 28.1567C16.9174 28.1571 16.9158 28.1635 16.9397 28.1785C16.9806 28.2043 16.9965 28.4659 17.0555 30.0855C17.1035 31.4017 17.1105 31.4913 17.1838 31.7263L17.2319 31.8804L17.2689 31.7587C17.2892 31.6917 17.3135 31.5569 17.3228 31.4592C17.3468 31.2086 17.378 30.8084 17.3843 30.671C17.3872 30.607 17.3994 30.4828 17.4112 30.3948C17.4231 30.3069 17.4394 30.1434 17.4476 30.0314C17.4557 29.9195 17.4682 29.756 17.4753 29.668C17.4885 29.506 17.5064 29.2499 17.5324 28.854C17.5403 28.7341 17.5488 28.636 17.5512 28.636C17.5581 28.636 17.5793 28.3699 17.593 28.1127C17.5997 27.9848 17.6079 27.8801 17.6111 27.8801C17.6211 27.8801 17.6623 27.1955 17.6972 26.4517C17.6981 26.4336 17.7224 26.4112 17.7512 26.402C17.78 26.3928 17.8574 26.355 17.9232 26.318C17.9891 26.2809 18.1103 26.2129 18.1926 26.1667C18.2749 26.1205 18.3759 26.0536 18.417 26.018C18.5049 25.9419 18.6424 25.8732 18.9706 25.7414C19.1023 25.6886 19.2774 25.6069 19.3597 25.5599C19.442 25.5129 19.5766 25.4437 19.6589 25.4061C19.7412 25.3685 19.8636 25.3015 19.9309 25.2571C19.9981 25.2128 20.1278 25.128 20.219 25.0688C20.3955 24.9542 20.4129 24.9187 20.4437 24.6096C20.4769 24.2766 20.4252 23.7026 20.3583 23.6624C20.344 23.6538 20.3323 23.6239 20.3323 23.596C20.3323 23.5681 20.2921 23.4838 20.243 23.4085C20.1939 23.3333 20.1459 23.2416 20.1364 23.2047C20.1147 23.1207 19.962 22.9439 19.9344 22.9708C19.9231 22.9817 19.9253 23.005 19.9393 23.0225C19.9533 23.04 19.973 23.0967 19.9831 23.1487C19.9933 23.2007 20.0309 23.3053 20.0668 23.3813C20.1027 23.4572 20.1305 23.5325 20.1287 23.5484C20.1268 23.5644 20.1187 23.656 20.1105 23.7519C20.094 23.9461 20.0849 23.9938 20.0309 24.1688C20.0104 24.2353 19.9833 24.2898 19.9708 24.2898C19.9582 24.2898 19.9386 24.3323 19.9272 24.3843C19.9157 24.4362 19.8928 24.4951 19.8762 24.5151C19.8597 24.5351 19.8579 24.5516 19.8722 24.5519C19.8866 24.5521 19.8849 24.5619 19.8684 24.5737C19.8519 24.5854 19.8229 24.6212 19.8039 24.6532C19.7848 24.6851 19.7545 24.7081 19.7365 24.704C19.7185 24.7001 19.7038 24.7083 19.7038 24.7223C19.7038 24.7364 19.6601 24.7652 19.6066 24.7863C19.5531 24.8075 19.4413 24.8666 19.3581 24.9178C19.2337 24.9945 19.0208 25.0999 18.9557 25.117C18.9474 25.1192 18.8817 25.1531 18.8096 25.1923C18.7375 25.2315 18.646 25.281 18.6063 25.3022C18.3856 25.42 17.1003 25.3161 17.1003 25.1804C17.1003 25.1649 17.0924 25.1599 17.0828 25.1692C17.0732 25.1785 17.0429 25.167 17.0155 25.1435C16.9881 25.1201 16.8983 25.0561 16.816 25.0015C16.1797 24.5789 15.6387 24.203 15.5408 24.1153C15.4263 24.0128 15.3115 23.9173 15.1925 23.8257C15.1226 23.7718 15.0653 23.7118 15.0653 23.6924C15.0653 23.6449 15.5948 23.1555 15.7748 23.0367C15.8537 22.9846 15.9721 22.9001 16.0379 22.8489C16.1038 22.7978 16.2564 22.6967 16.3771 22.6242C16.4978 22.5517 16.658 22.4422 16.733 22.3808C16.9793 22.1796 17.1723 22.0462 17.3396 21.9616C17.4302 21.9157 17.5783 21.8265 17.6689 21.7632C17.7594 21.6998 17.9381 21.585 18.0661 21.508C18.1941 21.4311 18.4401 21.2818 18.6128 21.1763C18.7856 21.0708 19.0424 20.9204 19.1834 20.842C19.3245 20.7636 19.527 20.6429 19.6335 20.5738C19.7399 20.5048 20.0316 20.3526 20.2816 20.2356C20.5317 20.1187 20.9034 19.9305 21.1077 19.8174C21.312 19.7043 21.5679 19.5763 21.6763 19.5329C21.7847 19.4895 22.0552 19.3736 22.2774 19.2753C22.6166 19.1251 23.3398 18.8777 23.8934 18.7223C24.2416 18.6246 24.8387 18.4356 24.8616 18.4158C24.8982 18.3843 24.5552 18.3635 23.712 18.3462C22.9695 18.3309 22.6387 18.2916 22.2325 18.1705C22.1502 18.146 21.8607 18.0732 21.5891 18.0087C20.9585 17.8591 19.8679 17.3518 19.4256 17.0022C19.3795 16.9658 19.2953 16.9146 19.2385 16.8884C19.1817 16.8622 19.1352 16.8292 19.1352 16.815C19.1352 16.8009 19.1165 16.7893 19.0935 16.7893C19.0706 16.7893 19.0434 16.7678 19.033 16.7415C19.0226 16.7152 19.0066 16.7011 18.9974 16.71C18.9881 16.719 18.9564 16.7045 18.9268 16.6778C18.8277 16.5885 18.7343 16.5276 18.6967 16.5276C18.6762 16.5276 18.6486 16.511 18.6355 16.4906C18.6223 16.4702 18.4869 16.3635 18.3345 16.2535L18.0574 16.0534L18.0643 15.571C18.0681 15.3057 18.0602 14.8924 18.0467 14.6525C18.0332 14.4127 18.0194 14.1445 18.0159 14.0565C18.0125 13.9686 17.9878 13.7462 17.961 13.5623C17.8945 13.1056 17.8277 12.544 17.7881 12.1087C17.77 11.9089 17.7421 11.6636 17.7261 11.5636C17.7101 11.4637 17.6887 11.1889 17.6786 10.9531C17.6582 10.481 17.6298 10.3299 17.5979 10.5243ZM14.4219 24.1444C14.4321 24.1604 14.4262 24.1735 14.4087 24.1735C14.3913 24.1735 14.3771 24.1604 14.3771 24.1444C14.3771 24.1284 14.383 24.1153 14.3902 24.1153C14.3975 24.1153 14.4118 24.1284 14.4219 24.1444ZM15.4475 24.9239C15.4548 24.9452 15.4411 24.9516 15.412 24.9408C15.3859 24.9311 15.3646 24.9104 15.3646 24.8948C15.3646 24.8565 15.4326 24.8804 15.4475 24.9239ZM15.7993 25.2145C15.7901 25.2234 15.766 25.2145 15.7456 25.1946C15.7163 25.1659 15.7198 25.1626 15.7624 25.1783C15.7919 25.1892 15.8085 25.2055 15.7993 25.2145ZM16.0678 25.3602C16.0528 25.3755 15.9332 25.2952 15.9332 25.2699C15.9332 25.257 15.9655 25.2699 16.0051 25.2986C16.0446 25.3274 16.0728 25.3551 16.0678 25.3602Z" stroke="white" stroke-width="0.220784"/>
</g>
<defs>
<filter id="filter0_d_508_2791" x="0.000169754" y="-1.33514e-05" width="35.3063" height="42.5868" filterUnits="userSpaceOnUse" color-interpolation-filters="sRGB">
<feFlood flood-opacity="0" result="BackgroundImageFix"/>
<feColorMatrix in="SourceAlpha" type="matrix" values="0 0 0 0 0 0 0 0 0 0 0 0 0 0 0 0 0 0 127 0" result="hardAlpha"/>
<feOffset/>
<feGaussianBlur stdDeviation="5.16569"/>
<feComposite in2="hardAlpha" operator="out"/>
<feColorMatrix type="matrix" values="0 0 0 0 1 0 0 0 0 1 0 0 0 0 1 0 0 0 0.7 0"/>
<feBlend mode="normal" in2="BackgroundImageFix" result="effect1_dropShadow_508_2791"/>
<feBlend mode="normal" in="SourceGraphic" in2="effect1_dropShadow_508_2791" result="shape"/>
</filter>
</defs>
</svg>
