<svg width="115" height="41" viewBox="0 0 115 41" fill="none" xmlns="http://www.w3.org/2000/svg">
<path d="M40.0941 12.3072C39.8181 12.4204 39.2032 12.7096 39.178 13.238V21.4753L39.0649 21.576L31.7372 14.3321V19.9161C31.7372 20.6831 32.4525 21.0228 32.7284 21.1361L32.7158 21.2494H29.7294L29.7168 21.1361C29.9927 21.0228 30.7081 20.671 30.7081 19.9161V13.2133C30.4069 12.9114 30.1184 12.6475 29.3657 12.3204L29.391 12.1945H31.4486L38.1488 18.9979V13.2759C38.1488 12.7228 37.484 12.4083 37.1954 12.2951L37.2207 12.1945H40.1067L40.0941 12.3077V12.3072Z" fill="#656565"/>
<path d="M49.768 19.1106C49.5925 20.1794 49.0779 21.2483 49.0779 21.2483H42.2521L42.2395 21.1603C42.5028 21.047 43.2308 20.6699 43.2308 19.9155V13.2754C43.2308 12.7223 42.5533 12.4078 42.2774 12.2945L42.3026 12.1939H48.5639C48.5639 12.1939 48.9529 12.9609 49.367 13.9544L49.3292 13.9797C49.1537 13.8164 48.7016 13.552 48.062 13.326C47.4975 13.1247 46.0169 13.0868 45.1634 13.0868C44.7366 13.0868 44.4985 13.0995 44.4985 13.0995V15.451H45.6653C46.2929 15.451 46.481 14.7467 46.5436 14.4196H46.6061L47.1207 17.2489H47.0581C46.9078 16.9471 46.4306 16.268 45.6653 16.268H44.4985V20.3427H44.95C45.8913 20.3427 47.8985 20.2921 48.5513 20.0156C49.0785 19.7517 49.5678 19.3113 49.7055 19.0721L49.768 19.11V19.1106Z" fill="#656565"/>
<path d="M59.7059 14.3822L59.5929 14.4075C59.2292 13.955 58.0997 12.8229 56.0799 12.8103V19.9155C56.0799 20.6825 56.7952 21.0223 57.0711 21.1356L57.0585 21.2488H53.8214L53.8088 21.1356C54.0847 21.0223 54.8001 20.6704 54.8001 19.9155V12.8103C52.7797 12.8229 51.6634 13.9544 51.2991 14.4075L51.1861 14.3822L51.9014 12.1939H58.9906L59.7059 14.3822Z" fill="#656565"/>
<path d="M64.8756 12.2945C64.5871 12.4078 63.9469 12.7096 63.9222 13.238V14.8352H68.7655V13.2759C68.7655 12.7228 68.1006 12.4083 67.8121 12.2951L67.8373 12.1945H70.974L70.9993 12.2951C70.7107 12.4083 70.0705 12.7102 70.0459 13.2386V19.9166C70.0459 20.6836 70.7612 21.0234 71.0371 21.1367L71.0245 21.2499H67.7874L67.7748 21.1367C68.0507 21.0234 68.766 20.6715 68.766 19.9166V15.7793H63.9227V19.9166C63.9227 20.6836 64.6381 21.0234 64.914 21.1367L64.9014 21.2499H61.6643L61.6517 21.1367C61.9276 21.0234 62.6429 20.6715 62.6429 19.9166V13.2765C62.6429 12.7234 61.9781 12.4089 61.6895 12.2956L61.7148 12.195H64.8142L64.8767 12.2956L64.8756 12.2945Z" fill="#656565"/>
<path d="M80.8609 19.1106C80.6853 20.1794 80.1708 21.2483 80.1708 21.2483H73.3449L73.3323 21.1603C73.5956 21.047 74.3236 20.6699 74.3236 19.9155V13.2754C74.3236 12.7223 73.6461 12.4078 73.3702 12.2945L73.3954 12.1939H79.6568C79.6568 12.1939 80.0457 12.9609 80.4599 13.9544L80.422 13.9797C80.2465 13.8164 79.7945 13.552 79.1548 13.326C78.5903 13.1247 77.1098 13.0868 76.2562 13.0868C75.8294 13.0868 75.5913 13.0995 75.5913 13.0995V15.451H76.7581C77.3857 15.451 77.5738 14.7467 77.6364 14.4196H77.6989L78.2135 17.2489H78.1509C78.0006 16.9471 77.5234 16.268 76.7581 16.268H75.5913V20.3427H76.0428C76.9841 20.3427 78.9913 20.2921 79.6441 20.0156C80.1713 19.7517 80.6606 19.3113 80.7983 19.0721L80.8609 19.11V19.1106Z" fill="#656565"/>
<path d="M96.0809 23.751C95.7046 23.8516 95.3655 23.9017 95.0271 23.9017C92.4801 23.9017 90.1964 21.2857 88.7537 19.4878L88.0383 18.6328C87.4486 17.9664 86.8841 17.5766 86.4574 17.2995C86.081 17.073 85.7168 16.759 85.4036 16.3687L85.454 16.2807C85.68 16.4192 86.1063 16.6326 86.4826 16.6705C87.4486 16.7211 88.6407 16.2307 88.6407 14.822C88.6407 14.0297 88.1766 13.0989 86.809 13.0989H85.002V19.915C85.002 20.682 85.7173 21.0217 85.9933 21.135L85.9806 21.2483H82.7436L82.7309 21.135C83.0069 21.0217 83.7222 20.6699 83.7222 19.915V13.2748C83.7222 12.7217 83.0573 12.4072 82.7688 12.294L82.794 12.1934H87.1606C88.9171 12.1934 89.9835 13.3502 89.9835 14.6835C89.9835 16.0168 89.08 16.8212 88.0262 17.0983L88.0389 17.1109C88.4903 17.4507 89.0428 18.1424 89.7076 18.972C90.3599 19.8023 91.1383 20.8079 92.129 21.7766C93.597 23.2227 95.4292 23.5877 96.0562 23.6631L96.0814 23.751H96.0809Z" fill="#656565"/>
<path d="M101.778 19.3998C102.205 20.318 102.405 20.6572 103.133 21.1476L103.12 21.2483H99.996L100.009 21.135C100.46 20.9211 100.799 20.5819 100.611 20.1288C100.611 20.1288 99.4189 17.4881 99.3564 17.3369H96.5708C96.4325 17.664 95.6799 19.4746 95.5669 19.7264C95.4791 19.9023 95.4413 20.0535 95.4413 20.2042C95.4413 20.644 95.755 21.0091 96.0057 21.1597V21.2477H93.1323L93.1449 21.1597C93.722 20.8453 94.0984 20.4054 94.4873 19.6005C95.5663 17.2236 96.8335 14.4569 97.8999 12.0927L98.0755 11.9921L101.777 19.3992L101.778 19.3998ZM98.9296 16.3813C98.5906 15.6643 98.2894 14.998 97.9383 14.2684C97.6245 14.9853 97.2861 15.6643 96.9723 16.3813H98.9296Z" fill="#656565"/>
<path d="M113.974 21.1356L113.948 21.2488H111.113V21.1735C111.213 21.1229 111.326 20.9849 111.326 20.8463C111.326 20.7584 111.251 20.5951 111.025 20.3686C110.749 20.0794 107.336 16.6463 107.336 16.6463L106.997 16.9608V19.9161C106.997 20.6831 107.712 21.0228 107.975 21.1361L107.963 21.2494H104.738L104.726 21.1361C105.002 21.0228 105.717 20.671 105.717 19.9161V13.2759C105.717 12.7228 105.052 12.4083 104.764 12.2951L104.789 12.1945H107.926L107.938 12.2951C107.662 12.4083 107.022 12.7102 106.997 13.2386V15.6654C107.386 15.3257 109.909 13.0747 110.134 12.8361C110.397 12.5843 110.209 12.3204 110.084 12.2577L110.109 12.195H112.87L112.882 12.2703C112.531 12.3709 111.653 12.7734 111.075 13.2891C110.411 13.8675 108.177 15.8925 108.177 15.8925C108.553 16.2697 111.125 18.8478 111.891 19.6021C112.894 20.6083 113.66 21.0234 113.974 21.1367V21.1356Z" fill="#656565"/>
<path d="M22.7774 31.2733C22.7774 31.2733 22.7738 31.5244 22.8154 31.6337C22.8356 31.6858 22.8417 31.7436 22.8497 31.7994C22.8723 31.9584 22.895 32.1174 22.9121 32.2771C22.9366 32.4999 22.9624 32.7209 23.0468 32.9321C23.0842 33.0254 23.0897 33.131 23.1283 33.2231C23.2214 33.446 23.3181 33.6676 23.4289 33.8819C23.462 33.9463 23.5446 33.9844 23.6077 34.0372C23.424 34.1974 23.2434 34.3613 23.0554 34.5154C22.9795 34.5774 22.8821 34.6118 22.8019 34.6689C22.6005 34.8138 22.4033 34.9648 22.2043 35.1134C22.0286 35.2448 21.8474 35.3688 21.6802 35.51C21.5057 35.6573 21.3588 35.8397 21.1757 35.9741C20.981 36.1172 20.8395 36.3093 20.6607 36.4646C20.5291 36.5794 20.3944 36.6912 20.2676 36.8109C20.2015 36.8735 20.1519 36.9533 20.0876 37.019C19.9664 37.1436 19.8403 37.2646 19.7153 37.3855C19.6008 37.4966 19.49 37.6096 19.3896 37.7355C19.228 37.9368 19.0277 38.1081 18.8765 38.3162C18.7798 38.4501 18.6291 38.5286 18.5557 38.687C18.5165 38.7711 18.4001 38.8166 18.326 38.8866C18.1926 39.013 18.0781 39.1641 17.9299 39.2678C17.8215 39.3439 17.7958 39.4747 17.6868 39.5422C17.5803 39.6079 17.4805 39.6853 17.3782 39.7589C17.14 39.9309 16.9037 40.1064 16.6624 40.274C16.608 40.3115 16.5326 40.3176 16.4726 40.3483C16.2473 40.4637 16.011 40.5595 15.766 40.6123C15.553 40.6584 15.3289 40.6498 15.1091 40.6657C15.1042 40.6541 15.0993 40.6424 15.0937 40.6307C15.1127 40.6129 15.1286 40.5859 15.1513 40.5779C15.4642 40.4705 15.7826 40.3784 16.0887 40.255C16.24 40.1942 16.3698 40.0782 16.5081 39.9861C16.6673 39.8805 16.8339 39.7847 16.9815 39.665C17.1382 39.5379 17.339 39.4526 17.4082 39.2304C17.4303 39.161 17.5141 39.1131 17.5607 39.0486C17.7419 38.7969 17.9213 38.5434 18.0971 38.288C18.146 38.2168 18.1718 38.1278 18.2256 38.0608C18.266 38.0099 18.3083 37.9669 18.3352 37.9037C18.3659 37.8325 18.4191 37.7711 18.4657 37.7078C18.4975 37.6655 18.5361 37.628 18.5716 37.5881C18.5838 37.574 18.604 37.5611 18.6071 37.5451C18.6353 37.3966 18.7694 37.3204 18.8373 37.1995C18.8814 37.1203 18.9169 37.0362 18.9604 36.957C18.9788 36.9239 19.013 36.8999 19.0314 36.8661C19.0939 36.7526 19.1533 36.6378 19.2114 36.5223C19.3014 36.3449 19.3951 36.1693 19.4778 35.9882C19.5372 35.8581 19.5825 35.7218 19.6302 35.5873C19.6823 35.4418 19.7729 35.3117 19.7858 35.1502C19.7894 35.1048 19.8347 35.0618 19.8629 35.0195C19.9162 34.9384 19.9713 34.8592 19.9529 34.753C19.9517 34.7444 19.978 34.7315 19.9915 34.7205C20.0086 34.7064 20.0405 34.6916 20.0399 34.6787C20.0252 34.4958 20.1544 34.3441 20.1507 34.1636C20.1495 34.1188 20.1691 34.0728 20.1813 34.028C20.2548 33.7535 20.264 33.473 20.2591 33.1912C20.2572 33.0942 20.3172 32.9953 20.2529 32.9002C20.2505 32.8965 20.2487 32.8891 20.2511 32.8867C20.3674 32.7289 20.2266 32.5625 20.2683 32.4029C20.2915 32.3121 20.2627 32.2273 20.2474 32.1408C20.2444 32.123 20.234 32.099 20.2419 32.0874C20.3025 31.9953 20.2695 31.9069 20.2382 31.8172C20.2058 31.7251 20.2107 31.6269 20.196 31.5336C20.1042 30.9387 20.0595 30.3395 20.0239 29.7397C20.0013 29.3621 19.9927 28.9815 19.9382 28.6083C19.869 28.1386 19.8856 27.6646 19.8286 27.1944C19.7931 26.8991 19.7949 26.5989 19.7809 26.3005C19.7607 25.8701 19.7374 25.4398 19.7215 25.0094C19.7074 24.6306 19.6994 24.2512 19.6915 23.8718C19.6817 23.361 19.6743 22.8509 19.6664 22.3401C19.6658 22.2977 19.6664 22.2554 19.6664 22.1835C19.8005 22.2474 19.9235 22.291 20.0301 22.3591C20.2346 22.4905 20.4728 22.5114 20.6889 22.6016C20.6932 22.5912 20.6981 22.5814 20.7024 22.5709C20.6362 22.5372 20.5707 22.5028 20.504 22.4702C20.4323 22.4352 20.357 22.4058 20.2872 22.3671C20.0986 22.2621 19.9052 22.1639 19.727 22.0436C19.5108 21.8974 19.3106 21.7274 19.0988 21.5745C18.8777 21.4149 18.6506 21.2639 18.4283 21.1061C18.3591 21.057 18.2973 20.9987 18.2318 20.9446C18.1209 20.8538 18.0615 20.8495 17.9562 20.9305C17.7554 21.0852 17.5564 21.2424 17.3562 21.3989C17.1713 21.5432 16.9845 21.685 16.8039 21.8342C16.7451 21.8833 16.7041 21.9533 16.6496 22.0208C16.7708 22.1166 16.7286 22.2529 16.7353 22.3665C16.7537 22.6833 16.7445 23.0013 16.7451 23.3187C16.7463 23.8117 16.7427 24.3053 16.75 24.7982C16.7549 25.139 16.78 25.4797 16.7892 25.8204C16.8063 26.4693 16.8167 27.1189 16.8351 27.7678C16.8418 28.0091 16.8663 28.2497 16.8767 28.4904C16.9031 29.0724 16.9263 29.6544 16.9502 30.2358C16.9576 30.415 16.9576 30.5955 16.9692 30.7742C16.9815 30.9663 17.0084 31.1573 17.0194 31.3494C17.0231 31.4077 16.9839 31.4685 16.9857 31.5268C16.9894 31.6619 17.0127 31.7964 17.0164 31.9314C17.0206 32.091 17.0108 32.2513 17.0115 32.4115C17.0115 32.67 17.0304 32.9297 17.0139 33.1869C16.9955 33.4718 17.0268 33.7554 16.9857 34.0433C16.9557 34.2527 16.8455 34.4129 16.7837 34.5989C16.6961 34.8629 16.5779 35.1165 16.4739 35.3749C16.4665 35.3921 16.4604 35.4105 16.4567 35.4289C16.4114 35.6334 16.3043 35.8102 16.1996 35.9845C16.1285 36.1024 16.0214 36.1982 15.9308 36.3038C15.8065 36.4481 15.6815 36.5923 15.5566 36.7366C15.4354 36.8772 15.3234 37.0276 15.1893 37.1541C15.0827 37.2548 14.9492 37.326 14.828 37.4101C14.7894 37.4371 14.7447 37.4573 14.7123 37.4905C14.6431 37.5605 14.5727 37.6188 14.4741 37.6501C14.4135 37.6698 14.3712 37.7391 14.3143 37.776C14.2127 37.8423 14.1061 37.9012 14.0032 37.962C13.939 37.919 13.9696 37.8797 13.9996 37.8411C14.2016 37.5801 14.351 37.2891 14.4827 36.9889C14.517 36.9103 14.5237 36.8201 14.5476 36.7366C14.5776 36.6328 14.5464 36.5217 14.6119 36.4167C14.6455 36.3627 14.6804 36.2651 14.6155 36.1847C14.6033 36.1693 14.6162 36.1313 14.6211 36.1036C14.6253 36.0766 14.6419 36.049 14.6382 36.0232C14.6278 35.9514 14.5739 35.847 14.6027 35.8157C14.6694 35.7427 14.5684 35.6678 14.6308 35.6101C14.6321 35.6088 14.6247 35.5941 14.6186 35.5886C14.5176 35.5038 14.5653 35.3903 14.6015 35.3135C14.6523 35.2061 14.6088 35.1465 14.55 35.0716C14.561 35.0575 14.5874 35.0385 14.5843 35.0256C14.5592 34.9188 14.5513 34.8138 14.5684 34.7027C14.5788 34.6364 14.5372 34.5633 14.5421 34.4952C14.5482 34.4154 14.5323 34.3509 14.4741 34.2889C14.5966 34.0525 14.5488 33.8205 14.4821 33.5786C14.449 33.4582 14.4845 33.3183 14.4912 33.1875C14.4925 33.1654 14.5164 33.1341 14.5084 33.123C14.4116 32.9911 14.5623 32.8357 14.4619 32.6982C14.4214 32.6423 14.4306 32.5496 14.4141 32.4563C14.4698 32.4213 14.4545 32.3501 14.4429 32.2734C14.359 31.7129 14.4019 31.1474 14.3865 30.5845C14.3774 30.2536 14.3614 29.9227 14.3578 29.5918C14.3523 29.0847 14.3584 28.5769 14.3529 28.0698C14.3504 27.8525 14.3265 27.6352 14.321 27.4179C14.3118 27.0679 14.3088 26.7174 14.3057 26.3674C14.2996 25.732 14.2935 25.0966 14.2892 24.4612C14.2874 24.1733 14.2892 23.8859 14.2892 23.5888C14.261 23.5943 14.2231 23.5894 14.2114 23.6054C14.092 23.7595 13.9108 23.8276 13.7596 23.9363C13.5789 24.0658 13.3922 24.1862 13.2085 24.3102C12.9893 24.4587 12.7689 24.6061 12.5509 24.7565C12.467 24.8142 12.3905 24.8823 12.3066 24.9394C12.1639 25.0364 12.0359 25.1549 11.8706 25.2194C11.8223 25.2384 11.7898 25.2937 11.7445 25.3244C11.4977 25.4914 11.2522 25.6602 10.9999 25.8186C10.8046 25.9414 10.6007 26.0494 10.3999 26.163C10.3515 26.1906 10.3007 26.2139 10.2505 26.2385C10.1935 26.2661 10.1354 26.2907 10.079 26.3195C10.0074 26.357 9.94067 26.4043 9.86597 26.4343C9.71534 26.4964 9.56288 26.5528 9.4092 26.6056C9.27694 26.6511 9.14224 26.6916 9.00753 26.729C8.94691 26.7462 8.88262 26.7505 8.82017 26.7603C8.71057 26.7775 8.59607 26.7794 8.49259 26.8137C8.2887 26.8813 8.08358 26.9077 7.8705 26.8911C7.83927 26.8886 7.80621 26.9009 7.77498 26.9083C7.59374 26.9507 7.41373 26.9556 7.23371 26.8972C7.19514 26.8843 7.14921 26.8856 7.10758 26.8911C6.87307 26.9236 6.65509 26.8408 6.43222 26.7959C6.40405 26.7904 6.38078 26.761 6.35874 26.7131C6.4114 26.7131 6.46467 26.7118 6.51733 26.7131C6.78 26.7198 7.03655 26.7106 7.29372 26.6296C7.48598 26.5688 7.67885 26.5056 7.85029 26.4098C7.97275 26.341 8.09521 26.2588 8.214 26.1765C8.34809 26.0838 8.47422 25.977 8.6175 25.9008C8.7271 25.8425 8.74853 25.7584 8.7473 25.6571C8.74486 25.4858 8.73139 25.3145 8.72771 25.1433C8.72588 25.0444 8.73445 24.945 8.73751 24.8455C8.74363 24.6484 8.75159 24.4508 8.75343 24.2537C8.75955 23.5949 8.76261 22.9356 8.76996 22.2769C8.77118 22.159 8.79506 22.0411 8.79568 21.9232C8.79568 21.782 8.77547 21.6414 8.77547 21.5002C8.77302 20.7476 8.7767 19.9943 8.77302 19.2416C8.76812 18.1605 8.76078 17.0794 8.75098 15.9989C8.74792 15.6913 8.72832 15.3837 8.72343 15.0755C8.70873 14.208 8.70077 13.3406 8.68363 12.4737C8.67812 12.1999 8.6475 11.9267 8.63832 11.6529C8.61995 11.0752 8.63403 10.4944 8.58566 9.91917C8.54953 9.48942 8.58015 9.05906 8.53423 8.63116C8.52872 8.57836 8.55076 8.52249 8.56117 8.46233C9.1153 8.7785 9.61493 9.16404 10.218 9.35989C10.1035 9.27701 9.99884 9.15545 9.87148 9.12168C9.72147 9.08239 9.66391 8.95899 9.49186 8.90006C9.45328 8.88716 9.37307 8.82577 9.31307 8.78341C9.19489 8.69992 9.06876 8.62686 8.95304 8.54091C8.83609 8.45435 8.72587 8.35858 8.57892 8.32543C8.57464 8.32113 8.56974 8.31867 8.56484 8.31192C8.40442 8.14432 8.19624 8.06328 8.01806 7.93804C7.84111 7.81402 7.65313 7.70659 7.46945 7.59301C7.28637 7.48005 7.10146 7.37016 6.92022 7.25474C6.82041 7.19151 6.76898 7.19151 6.68203 7.26763C6.44569 7.47452 6.20506 7.67651 5.97177 7.88708C5.75379 8.08415 5.54439 8.29043 5.32702 8.48873C5.27498 8.536 5.26212 8.58327 5.26702 8.6508C5.30314 9.12291 5.33621 9.59502 5.36927 10.0671C5.38274 10.2556 5.37846 10.4465 5.40785 10.6319C5.47949 11.0807 5.46663 11.5332 5.48806 11.9844C5.50275 12.2908 5.53704 12.5959 5.55786 12.9022C5.56643 13.0299 5.5597 13.1582 5.56643 13.2859C5.59154 13.7869 5.62031 14.2872 5.64419 14.7882C5.65215 14.9491 5.64664 15.1105 5.65093 15.2714C5.67113 16.0007 5.70114 16.73 5.71277 17.46C5.72747 18.403 5.72869 19.346 5.73359 20.2896C5.73542 20.645 5.73543 21.0011 5.72624 21.356C5.72195 21.5137 5.69318 21.6709 5.67603 21.8287C5.6742 21.8471 5.66562 21.8717 5.6742 21.8833C5.74522 21.9883 5.69134 22.1 5.6944 22.2087C5.69501 22.2308 5.68889 22.2609 5.6742 22.275C5.6295 22.3168 5.62276 22.3499 5.6546 22.4082C5.66379 22.4248 5.63991 22.4837 5.64726 22.5365C5.6595 22.6219 5.70052 22.7176 5.63746 22.811C5.61419 22.8453 5.59276 22.9067 5.65705 22.9608C5.69256 22.9908 5.69318 23.0756 5.69134 23.1345C5.68032 23.5372 5.6644 23.9394 5.65093 24.3421C5.63501 24.8056 5.62337 25.2697 5.60439 25.7332C5.5848 26.225 5.58174 26.7192 5.53031 27.2079C5.48132 27.6757 5.48255 28.1441 5.44765 28.6113C5.40785 29.1448 5.36805 29.6783 5.32335 30.2112C5.28967 30.6121 5.24804 31.0118 5.21008 31.412C5.20824 31.4311 5.20701 31.4501 5.20701 31.4691C5.19171 32.1512 5.16293 32.8339 5.16844 33.516C5.17089 33.8499 5.23028 34.1839 5.27865 34.516C5.30927 34.7266 5.34968 34.939 5.41642 35.1398C5.49051 35.362 5.57439 35.5824 5.71093 35.7807C5.80217 35.9133 5.85788 36.0705 5.93503 36.2135C6.00606 36.3449 6.08566 36.472 6.16158 36.6009C6.16648 36.6089 6.17628 36.6138 6.18056 36.6218C6.25343 36.7458 6.32752 36.8686 6.39732 36.9938C6.4561 37.0988 6.50324 37.2099 6.56692 37.3112C6.61958 37.3947 6.68999 37.4672 6.75061 37.5464C6.84613 37.6716 6.93981 37.7993 7.03472 37.9252C7.12227 38.0406 7.20799 38.1572 7.29923 38.269C7.39352 38.3844 7.50373 38.4869 7.58946 38.6085C7.73457 38.8147 7.88091 39.0124 8.08541 39.169C8.17848 39.2402 8.24584 39.3513 8.34197 39.4317C8.57464 39.6257 8.8018 39.8216 9.09693 39.9216C9.24939 39.9732 9.38593 40.0708 9.53655 40.131C9.72147 40.2053 9.91434 40.2593 10.1011 40.3281C10.155 40.3477 10.1997 40.3907 10.2566 40.4281C10.1611 40.5368 10.0705 40.4625 9.9872 40.4496C9.8923 40.4349 9.79923 40.4048 9.70616 40.379C9.58493 40.3459 9.4643 40.3121 9.34368 40.2759C9.26102 40.2513 9.17775 40.2255 9.09754 40.1936C9.00018 40.1555 8.90528 40.1095 8.80853 40.069C8.75037 40.0444 8.68853 40.0278 8.63097 40.0014C8.57158 39.9738 8.4883 40.0076 8.4534 39.9081C8.43626 39.8602 8.35727 39.8351 8.30768 39.7976C8.18399 39.7055 8.06521 39.6061 7.93601 39.5226C7.88397 39.4888 7.83254 39.4231 7.74926 39.4563C7.73579 39.4618 7.70824 39.4385 7.6911 39.4244C7.52394 39.2868 7.34576 39.1598 7.19636 39.0057C7.11064 38.9173 6.97287 38.8718 6.94042 38.7312C6.93614 38.7128 6.90797 38.6944 6.88715 38.687C6.76837 38.6471 6.69918 38.5477 6.61284 38.4679C6.5461 38.4059 6.47385 38.3506 6.40895 38.2868C6.32996 38.2082 6.24975 38.1296 6.1824 38.0412C6.14321 37.9896 6.10954 37.9448 6.05137 37.9061C5.97422 37.8552 5.90993 37.7717 5.86646 37.6888C5.83584 37.6299 5.78625 37.6065 5.74461 37.5679C5.64052 37.4727 5.52418 37.388 5.43173 37.283C5.32519 37.1621 5.21253 37.0454 5.12252 36.9079C5.05455 36.8041 4.95475 36.7206 4.86352 36.6335C4.81943 36.5911 4.79555 36.523 4.7631 36.4953C4.68473 36.4284 4.67738 36.3197 4.57758 36.2633C4.47716 36.2068 4.40062 36.1012 4.32715 36.0066C4.23714 35.8912 4.1257 35.7991 4.02773 35.6929C3.90589 35.5609 3.79567 35.4179 3.66954 35.2902C3.50912 35.1281 3.34074 34.9728 3.1693 34.8224C3.11541 34.7751 3.04316 34.7438 2.97336 34.7223C2.80988 34.6707 2.6764 34.5578 2.51904 34.4995C2.38678 34.4503 2.25881 34.3957 2.1388 34.3239C2.10145 34.3018 2.07574 34.2594 2.03777 34.2189C2.16819 34.1158 2.13329 33.9721 2.16207 33.8469C2.18044 33.7658 2.19085 33.6817 2.22146 33.6056C2.28943 33.438 2.30474 33.2636 2.31025 33.0862C2.31025 33.077 2.30596 33.0653 2.31025 33.058C2.4125 32.875 2.38311 32.6632 2.4376 32.4698C2.45291 32.4164 2.46026 32.3599 2.46577 32.3041C2.48169 32.1555 2.48904 32.0057 2.51047 31.8584C2.56312 31.5004 2.54169 31.1376 2.59068 30.7797C2.64762 30.3585 2.70273 29.9374 2.74865 29.515C2.78784 29.1528 2.80131 28.7881 2.84662 28.4265C2.90601 27.9526 2.93969 27.478 2.96785 27.0016C2.99051 26.6142 3.02235 26.2281 3.04929 25.8413C3.07623 25.4545 3.10501 25.0678 3.12888 24.6804C3.14909 24.3458 3.16379 24.0106 3.17909 23.6754C3.18889 23.4593 3.19195 23.2432 3.2042 23.0271C3.22073 22.725 3.2391 22.423 3.26481 22.1221C3.27094 22.0497 3.30951 21.9797 3.33339 21.9091C3.35115 21.8575 3.37013 21.8066 3.3885 21.7556C3.37748 21.7501 3.36584 21.7446 3.35482 21.7397C3.33094 21.7851 3.30767 21.8305 3.2838 21.876C3.27645 21.8772 3.26849 21.8784 3.26114 21.8796C3.25318 21.8109 3.23849 21.7421 3.2391 21.674C3.24338 21.0103 3.25257 20.3473 3.25563 19.6836C3.25747 19.3282 3.24706 18.9727 3.24645 18.6172C3.24645 18.3152 3.24889 18.0131 3.25563 17.7105C3.25808 17.6012 3.27339 17.4925 3.28869 17.3839C3.2942 17.3452 3.31808 17.3084 3.34135 17.2513C3.30951 17.2163 3.26726 17.1708 3.21216 17.1107C3.25379 17.0898 3.29176 17.0708 3.33645 17.0481C3.32053 17.0309 3.30523 17.0039 3.28318 16.9946C3.23604 16.9738 3.23787 16.948 3.23481 16.8983C3.20481 16.3985 3.16134 15.9 3.13072 15.4003C3.11174 15.0884 3.11297 14.7753 3.09521 14.4628C3.07684 14.1276 3.04745 13.7924 3.02235 13.4572C3.0199 13.4241 3.01439 13.3915 3.01194 13.3584C2.99051 13.052 2.96908 12.7451 2.94765 12.4387C2.9403 12.3301 2.93356 12.2214 2.92377 12.1127C2.9103 11.9592 2.89376 11.8058 2.88029 11.6517C2.84907 11.303 2.82029 10.9536 2.78784 10.6049C2.76947 10.4079 2.74865 10.2108 2.72477 10.0143C2.68497 9.68649 2.63905 9.35989 2.60047 9.03144C2.57353 8.80183 2.55455 8.57099 2.53373 8.34077C2.53128 8.31437 2.54169 8.28675 2.54843 8.24562C2.9403 8.42181 3.2593 8.69194 3.61566 8.91234C3.58505 8.87366 3.5581 8.83068 3.52259 8.79692C3.48218 8.75824 3.43381 8.72877 3.38911 8.69439C3.17848 8.5317 2.9752 8.3598 2.75661 8.20878C2.4076 7.96751 2.03655 7.76368 1.63917 7.61266C1.56141 7.58319 1.47324 7.5617 1.3918 7.56784C1.19587 7.58196 0.995648 7.59547 0.807061 7.64642C0.657661 7.68694 0.531529 7.79499 0.434174 7.92208C0.382741 7.98899 0.337431 8.06144 0.298244 8.13572C0.271303 8.18668 0.25967 8.24561 0.242525 8.30087C0.237015 8.31867 0.238851 8.33954 0.230279 8.35489C0.142109 8.50592 0.212523 8.66738 0.228442 8.81411C0.242525 8.94426 0.280488 9.08546 0.321511 9.21868C0.357024 9.33533 0.393762 9.4532 0.456216 9.55204C0.55051 9.7 0.641742 9.84673 0.704808 10.0119C0.715829 10.0401 0.747669 10.0622 0.773385 10.0825C0.854208 10.1451 0.85482 10.1445 0.881149 10.2949C0.818083 10.2482 0.762364 10.2169 0.719503 10.1733C0.618474 10.0708 0.51867 9.96644 0.428663 9.8541C0.342329 9.74666 0.270079 9.63124 0.244362 9.48758C0.228442 9.39734 0.169662 9.31507 0.139047 9.22666C0.0716949 9.03021 0.00862847 8.83498 0.000668628 8.62072C-0.0121896 8.26894 0.162927 7.98838 0.308653 7.69492C0.38519 7.54022 0.466625 7.38796 0.552959 7.23817C0.595207 7.16449 0.660111 7.10372 0.702971 7.03005C0.742158 6.96374 0.75869 6.88393 0.797265 6.81763C0.857882 6.71449 0.898906 6.59907 0.991975 6.51496C1.01647 6.49286 1.01647 6.44498 1.03361 6.41182C1.14933 6.18222 1.26506 5.95261 1.38262 5.72423C1.45977 5.57443 1.52039 5.42095 1.5461 5.25273C1.5608 5.15696 1.59937 5.06426 1.61345 4.96849C1.64713 4.74195 1.6704 4.51418 1.70162 4.28703C1.71326 4.20354 1.7451 4.1225 1.75245 4.03962C1.7653 3.88307 1.73836 3.7167 1.78306 3.5712C1.81429 3.46806 1.76837 3.36492 1.82531 3.26546C1.85776 3.20837 1.81919 3.11505 1.84184 3.04813C1.92879 2.79213 1.92144 2.51647 2.01206 2.2617C2.03839 2.18803 2.04451 2.10822 2.06533 2.0327C2.06961 2.01613 2.09656 2.00569 2.11309 1.99218C2.12778 2.01244 2.15656 2.03393 2.15534 2.05296C2.14615 2.1518 2.12962 2.25003 2.11615 2.34826C2.10207 2.45078 2.08308 2.55331 2.07757 2.65645C2.0641 2.91553 2.04267 3.17583 2.05308 3.43491C2.06165 3.65346 2.10451 3.87079 2.14248 4.08689C2.1633 4.20599 2.1982 4.32325 2.23922 4.43744C2.34637 4.73765 2.52822 4.98875 2.76028 5.20485C2.89805 5.33316 3.02724 5.47006 3.17113 5.59101C3.38972 5.77457 3.61566 5.95015 3.84282 6.12328C3.90589 6.17116 3.98549 6.19634 4.051 6.22887C3.97263 6.10609 3.97324 6.09197 4.08713 5.97901C4.43552 5.63337 4.78514 5.28896 5.13538 4.94516C5.35703 4.72722 5.5799 4.5105 5.80523 4.29685C5.86401 4.24099 5.87013 4.18573 5.83523 4.12127C5.79665 4.05067 5.75686 3.9813 5.71277 3.91438C5.59154 3.72959 5.46234 3.55032 5.34601 3.36246C5.15681 3.05611 5.01659 2.72705 4.89903 2.38694C4.8427 2.22363 4.7631 2.06831 4.7135 1.90316C4.65534 1.71223 4.56288 1.5299 4.55921 1.32301C4.55798 1.26346 4.52798 1.20513 4.5243 1.14558C4.51267 0.954652 4.50655 0.763108 4.50043 0.571563C4.49798 0.507101 4.50165 0.442025 4.50043 0.377563C4.49798 0.257234 4.49002 0.136291 4.56227 0C4.59717 0.238203 4.62595 0.447551 4.6584 0.656285C4.67371 0.752671 4.68718 0.851513 4.7184 0.943601C4.80535 1.20084 4.88617 1.46114 4.99761 1.70794C5.15436 2.05542 5.35703 2.37773 5.6148 2.66259C5.66746 2.7203 5.71889 2.7823 5.75502 2.85106C5.86768 3.06225 6.06974 3.18688 6.23077 3.34896C6.38507 3.50428 6.57488 3.62399 6.74694 3.76151C6.80939 3.81124 6.86205 3.87325 6.92512 3.92175C7.17371 4.11329 7.42475 4.30054 7.67395 4.49147C7.99418 4.73765 8.31013 4.98936 8.63281 5.23186C8.83058 5.38043 9.0308 5.52777 9.24204 5.65547C9.4294 5.76904 9.63452 5.85315 9.83107 5.95199C10.1311 6.10363 10.4495 6.19327 10.7765 6.26755C10.9859 6.31544 11.1953 6.32587 11.4053 6.34368C11.4806 6.35043 11.5553 6.36148 11.6306 6.36639C11.7408 6.37376 11.8467 6.39525 11.9619 6.3535C12.0506 6.32096 12.1609 6.34675 12.2613 6.34675C12.2643 6.36087 12.2674 6.37499 12.2705 6.38911C12.2313 6.4063 12.1933 6.42533 12.1535 6.43945C12.0445 6.47813 11.9588 6.54443 11.8865 6.63652C11.6655 6.9177 11.5541 7.24553 11.4867 7.58872C11.4126 7.96444 11.344 8.34139 11.2951 8.72079C11.2222 9.27946 11.2155 9.84304 11.2093 10.4066C11.2057 10.7314 11.1818 11.0562 11.1842 11.3803C11.1916 12.3276 11.213 13.2743 11.2191 14.2216C11.2308 15.9276 11.2381 17.6337 11.243 19.3398C11.2467 20.6764 11.243 22.0135 11.2449 23.35C11.2449 23.4384 11.2645 23.5262 11.2761 23.6244C11.4273 23.6054 11.513 23.4863 11.6226 23.412C11.7286 23.3402 11.8241 23.2536 11.9245 23.1732C12.1651 22.9798 12.4088 22.7889 12.6464 22.5912C12.8509 22.4211 13.0591 22.2529 13.2477 22.0663C13.4908 21.8256 13.7547 21.6095 14.0051 21.3781C14.0651 21.3222 14.1208 21.2584 14.19 21.2166C14.2757 21.165 14.2727 21.0938 14.2727 21.0116C14.2745 19.9163 14.2782 18.8211 14.2812 17.7258C14.2825 17.2814 14.2812 16.8369 14.2825 16.3918C14.2837 15.8957 14.288 15.3991 14.2892 14.903C14.2892 14.7729 14.2598 14.6384 14.2837 14.5144C14.3437 14.2062 14.2598 13.8894 14.3535 13.5849C14.367 13.5413 14.34 13.4867 14.3376 13.437C14.329 13.2675 14.3155 13.0981 14.318 12.9292C14.3216 12.6088 14.34 12.2889 14.3437 11.9685C14.3504 11.3472 14.3486 10.7265 14.3559 10.1052C14.3663 9.24263 14.3847 8.38006 14.3927 7.5175C14.3951 7.22098 14.3743 6.92445 14.3682 6.62792C14.3657 6.49593 14.3767 6.36332 14.3761 6.23072C14.3749 6.07109 14.3596 5.91086 14.3651 5.75185C14.3725 5.55479 14.3633 5.36201 14.3131 5.17047C14.2671 4.99489 14.2402 4.81317 14.1857 4.64065C14.1459 4.51357 14.0749 4.39631 14.0173 4.27475C14.0112 4.26248 13.9965 4.25327 13.9935 4.24037C13.9432 4.05804 13.8422 3.89965 13.7522 3.73634C13.6695 3.58654 13.5765 3.44227 13.4999 3.28879C13.3524 2.99165 13.1277 2.75529 12.9152 2.50788C12.8252 2.4029 12.7511 2.2838 12.666 2.17391C12.5631 2.0413 12.4615 1.90685 12.3501 1.78161C12.23 1.64654 12.1008 1.52008 11.9741 1.39115C11.818 1.23276 11.6631 1.07375 11.502 0.920886C11.4481 0.86993 11.3783 0.836165 11.3153 0.795032C11.1549 0.690665 10.9969 0.581386 10.8316 0.483772C10.7318 0.424835 10.6215 0.38493 10.5168 0.334589C10.4942 0.323538 10.4752 0.30512 10.4587 0.274424C10.6007 0.240658 10.7397 0.235133 10.8701 0.30819C11.1285 0.452462 11.3881 0.594892 11.6404 0.749601C11.7953 0.844146 11.9312 0.97 12.0868 1.0627C12.2827 1.18058 12.4866 1.28617 12.6935 1.3844C12.8974 1.48079 13.1154 1.54893 13.315 1.65268C13.4454 1.72022 13.5777 1.78099 13.7087 1.84484C13.8147 1.89641 13.9157 1.96947 14.0002 2.05235C14.1875 2.23591 14.3547 2.44096 14.5464 2.62023C14.7496 2.81054 14.9125 3.03647 15.1097 3.23108C15.2615 3.38088 15.4293 3.51533 15.5713 3.67434C15.7054 3.82352 15.8505 3.96104 16.0091 4.07768C16.131 4.16732 16.1953 4.31159 16.33 4.38403C16.3459 4.39263 16.3453 4.42701 16.3581 4.44542C16.4586 4.5897 16.5602 4.73397 16.6643 4.87517C16.6716 4.88499 16.7047 4.8764 16.7029 4.8764C16.7439 4.94516 16.7782 5.00471 16.8137 5.06242C16.8816 5.17292 16.9735 5.27484 17.0133 5.39455C17.05 5.50383 17.0415 5.63214 17.0366 5.75124C17.0243 6.08153 16.9992 6.41121 16.9876 6.7415C16.9796 6.96988 16.987 7.19887 16.9876 7.42725C16.9876 7.45058 16.9998 7.48067 16.9894 7.49663C16.9257 7.59363 16.9661 7.69738 16.9619 7.79868C16.9508 8.0817 16.9312 8.36472 16.9196 8.64773C16.9135 8.78955 16.9208 8.93198 16.9159 9.07441C16.9043 9.40593 16.889 9.73684 16.8749 10.0684C16.8516 10.6215 16.8278 11.1753 16.8057 11.7284C16.7947 11.9979 16.7867 12.268 16.7794 12.5376C16.758 13.3332 16.7457 14.1288 16.7151 14.9239C16.6637 16.2641 16.6551 17.6049 16.6631 18.9457C16.6637 19.093 16.6043 19.1968 16.5075 19.2926C16.3783 19.4203 16.2516 19.5498 16.1236 19.6793C16.1157 19.6873 16.1126 19.6996 16.1236 19.7266C16.2314 19.6315 16.3379 19.5338 16.4481 19.4417C16.5877 19.3251 16.7298 19.2115 16.8731 19.0992C17.1572 18.8763 17.4419 18.6541 17.7272 18.4331C17.9911 18.2286 18.255 18.0248 18.5208 17.8234C18.7865 17.6221 19.0553 17.4244 19.3223 17.2249C19.3823 17.1801 19.4349 17.1205 19.5004 17.0892C19.5911 17.0462 19.6015 16.9775 19.6021 16.8921C19.6057 16.5698 19.6076 16.2475 19.6192 15.9252C19.6425 15.2812 19.6676 14.6378 19.7007 13.9944C19.7325 13.37 19.7747 12.7463 19.8133 12.1219C19.8409 11.6689 19.8476 11.2121 19.9064 10.7633C19.9382 10.5184 19.9407 10.2734 19.9639 10.0297C20.0037 9.61037 20.0313 9.19044 20.0644 8.77052C20.0827 8.53416 20.1121 8.29841 20.1195 8.06205C20.1342 7.56968 20.1538 7.07609 20.1384 6.58372C20.1274 6.22089 20.076 5.85745 20.0184 5.4983C19.9811 5.26501 19.9272 5.03111 19.8243 4.81439C19.8164 4.79782 19.8103 4.77019 19.798 4.76651C19.6413 4.7223 19.6125 4.55716 19.5127 4.45893C19.4116 4.35886 19.3425 4.22687 19.258 4.10961C19.0651 3.84255 18.8796 3.56997 18.6763 3.31089C18.5214 3.1126 18.3414 2.93517 18.1534 2.76511C18.0511 2.67303 17.9752 2.54901 17.8968 2.43298C17.8019 2.29239 17.6844 2.1782 17.5472 2.08059C17.4884 2.03884 17.448 1.97131 17.3929 1.92281C17.2056 1.75889 17.0586 1.54647 16.8143 1.44947C16.7298 1.41571 16.6569 1.35247 16.5835 1.27573C16.6263 1.2788 16.6784 1.26714 16.7108 1.2874C16.9808 1.45746 17.2668 1.59866 17.5307 1.78284C17.7278 1.91974 17.8907 2.0898 18.0781 2.23284C18.1669 2.30037 18.2777 2.34151 18.3591 2.41518C18.4932 2.53735 18.6555 2.63558 18.732 2.813C18.8251 2.79213 18.8483 2.90202 18.909 2.91491C18.9935 2.93333 19.0259 3.00147 19.0798 3.04506C19.2635 3.19363 19.3939 3.40175 19.6106 3.51656C19.6713 3.54848 19.7098 3.62031 19.7656 3.66574C19.8103 3.70258 19.8666 3.72529 19.9156 3.75783C19.9321 3.76888 19.9388 3.79344 19.9541 3.80817C19.9756 3.82966 19.9976 3.86097 20.0239 3.86649C20.1262 3.88798 20.1936 3.94999 20.2609 4.0255C20.2976 4.06725 20.3766 4.06172 20.4109 4.12189C20.4636 4.21336 20.5756 4.23178 20.6411 4.30115C20.7501 4.41596 20.8983 4.48226 21.0042 4.58785C21.1885 4.77203 21.4145 4.89359 21.6116 5.05567C21.7059 5.13302 21.8314 5.17231 21.941 5.23125C22.0372 5.28282 22.1278 5.34482 22.2258 5.39148C22.3813 5.46515 22.5399 5.53207 22.6991 5.59776C22.7278 5.60942 22.7646 5.59899 22.797 5.6039C22.9826 5.62907 23.007 5.723 22.963 5.86359C22.8595 6.19511 22.7891 6.53399 22.7346 6.87595C22.6813 7.20686 22.6305 7.53837 22.5821 7.87051C22.5644 7.99206 22.5564 8.11546 22.5448 8.23825C22.5203 8.49487 22.4982 8.7521 22.4713 9.00811C22.4492 9.21807 22.4015 9.42742 22.4039 9.63677C22.4064 9.81972 22.3672 9.991 22.3427 10.1672C22.3225 10.3145 22.3427 10.4674 22.3305 10.6166C22.3054 10.9168 22.2643 11.2164 22.2392 11.5166C22.1982 12.0053 22.167 12.4946 22.1266 12.9833C22.1119 13.1613 22.0764 13.3381 22.0617 13.5162C22.0494 13.6659 22.0543 13.8164 22.0488 13.9668C22.0384 14.2737 22.0182 14.5807 22.0188 14.8877C22.0188 15.1756 22.0231 15.4654 22.0568 15.7502C22.0855 15.994 22.1596 16.2328 22.2129 16.4734C22.2484 16.6349 22.2558 16.8105 22.3262 16.9547C22.3966 17.0996 22.3917 17.2586 22.4597 17.4005C22.5074 17.4993 22.5123 17.6184 22.5588 17.7178C22.6115 17.8314 22.6776 17.9438 22.7603 18.0365C22.8185 18.1016 22.9109 18.1402 22.9942 18.1765C23.1093 18.2256 23.2305 18.2587 23.3475 18.3041C23.3726 18.314 23.3891 18.3459 23.402 18.3594C23.2201 18.3477 23.0334 18.3355 22.8466 18.3244C22.7499 18.3189 22.6525 18.3091 22.5558 18.3134C22.3482 18.3232 22.1382 18.3244 21.9343 18.3594C21.7365 18.3932 21.5394 18.4503 21.352 18.5233C21.1218 18.6136 20.902 18.7308 20.6773 18.8364C20.3919 18.9709 20.1421 19.16 19.8911 19.346C19.7968 19.416 19.7147 19.4448 19.6119 19.3767C19.5898 19.3619 19.5623 19.3558 19.5372 19.346C19.531 19.3552 19.5249 19.3644 19.5188 19.3736C19.6345 19.462 19.7472 19.5541 19.866 19.637C20.1121 19.8089 20.3576 19.9826 20.6117 20.1422C21.0073 20.3909 21.4292 20.58 21.889 20.6825C22.2833 20.7703 22.6825 20.7629 23.0817 20.7715C23.132 20.7727 23.1816 20.7715 23.2318 20.7715C23.2354 20.7832 23.2385 20.7955 23.2422 20.8071C23.1669 20.8427 23.0946 20.8863 23.0162 20.9127C22.8001 20.9852 22.677 21.1454 22.5876 21.3431C22.5478 21.4315 22.5031 21.518 22.4609 21.6058C22.3103 21.9208 22.2717 22.2633 22.2178 22.6016C22.0831 23.4445 22.1443 24.2942 22.14 25.1408C22.1394 25.2998 22.1823 25.4582 22.2007 25.6172C22.2105 25.7013 22.2086 25.7873 22.2154 25.872C22.2435 26.2164 22.2729 26.5608 22.3011 26.9052C22.3115 27.0329 22.3182 27.16 22.3274 27.2877C22.3476 27.5615 22.3641 27.8353 22.3899 28.1079C22.4174 28.4044 22.4541 28.6997 22.486 28.9962C22.5331 29.4334 22.5791 29.8711 22.6274 30.3082C22.6525 30.5378 22.6776 30.768 22.7095 30.997C22.7223 31.0879 22.7499 31.1775 22.7756 31.2659" fill="#656565"/>
<path d="M13.4871 39.0437C13.3646 38.9688 13.2428 38.8866 13.1356 38.7797C13.0456 38.6907 12.9446 38.6042 12.8552 38.5139C12.7303 38.3881 12.6427 38.226 12.5313 38.086C12.3941 37.9147 12.2472 37.7508 12.107 37.582C12.028 37.4868 11.949 37.3904 11.878 37.2891C11.7874 37.159 11.7022 37.0245 11.619 36.8889C11.5308 36.7458 11.4328 36.6058 11.3661 36.453C11.3085 36.3216 11.2761 36.1859 11.2994 36.0238C11.3269 35.8341 11.2645 35.6328 11.2553 35.4357C11.243 35.1674 11.243 34.8979 11.2406 34.6296C11.2381 34.3773 11.2393 34.125 11.2375 33.8726C11.2369 33.7707 11.2375 33.6682 11.2277 33.5669C11.2075 33.3563 11.1628 33.147 11.1604 32.9364C11.1512 32.2537 11.1493 31.571 11.1573 30.8884C11.1653 30.2253 11.1977 29.5629 11.2038 28.9005C11.2093 28.2755 11.1946 27.6499 11.1898 27.0249C11.1898 26.974 11.202 26.9224 11.2075 26.8715C11.2161 26.788 11.2363 26.7032 11.2289 26.621C11.2173 26.4908 11.1965 26.3619 11.1775 26.233C10.9271 26.4288 10.6283 26.5762 10.3417 26.6922C10.3264 26.6983 10.3129 26.6996 10.3001 26.6971C10.2842 26.7106 10.264 26.7186 10.2438 26.7204C10.2431 26.7204 10.2419 26.7204 10.2413 26.7204C10.2364 26.7223 10.2309 26.7241 10.226 26.726C10.2242 26.7278 10.2235 26.7296 10.2217 26.7315C10.2138 26.7401 10.2046 26.7456 10.1942 26.7493C10.1862 26.7536 10.1776 26.7554 10.1691 26.756C10.1568 26.7634 10.1452 26.7702 10.1335 26.7751C10.076 26.7996 10.016 26.818 9.95536 26.8352C9.78759 26.9163 9.61248 27.0059 9.42879 27.0182C9.38777 27.0329 9.34613 27.0477 9.30449 27.0599C9.09693 27.1226 8.87956 27.1385 8.66771 27.1827C8.66158 27.292 8.62485 27.4013 8.67812 27.5093C8.68669 27.5271 8.67383 27.5554 8.67199 27.5787C8.65852 27.761 8.63709 27.9434 8.63281 28.1257C8.6273 28.4044 8.63832 28.6831 8.63403 28.9619C8.62485 29.5807 8.61138 30.2002 8.59668 30.819C8.59117 31.0394 8.57035 31.2598 8.56913 31.4796C8.5679 31.6656 8.59239 31.8516 8.59239 32.0376C8.59239 32.2157 8.55076 32.3968 8.57219 32.5711C8.59117 32.7295 8.57647 32.8861 8.58382 33.042C8.60586 33.5092 8.58995 33.9782 8.59607 34.446C8.59913 34.6622 8.60587 34.8801 8.63403 35.0944C8.64934 35.2079 8.67077 35.3332 8.76506 35.421C8.80609 35.459 8.85813 35.4879 8.84282 35.5597C8.84037 35.5726 8.85752 35.5972 8.87221 35.6058C8.97508 35.6671 8.94569 35.8286 9.07243 35.871C9.12081 36.0152 9.22612 36.1147 9.33205 36.2172C9.40369 36.2866 9.45757 36.3744 9.5237 36.4499C9.58248 36.5174 9.64677 36.5794 9.70861 36.6439C9.89352 36.8391 10.046 37.0601 10.275 37.221C10.4654 37.3542 10.6613 37.4887 10.8248 37.6667C10.9754 37.83 11.1787 37.9448 11.3587 38.0811C11.4279 38.1339 11.4886 38.2063 11.5663 38.2376C11.7371 38.307 11.8767 38.42 12.0261 38.5207C12.1302 38.5907 12.2386 38.6545 12.3494 38.7134C12.3929 38.7362 12.4548 38.7257 12.4952 38.7515C12.6084 38.8221 12.7113 38.9081 12.8246 38.9787C12.9317 39.0456 13.0401 39.107 13.1705 39.134C13.3144 39.1634 13.4559 39.2156 13.5918 39.2746C13.7608 39.3476 13.9224 39.4373 14.1184 39.3513C13.8618 39.3372 13.6849 39.1641 13.4871 39.0431V39.0437Z" fill="#656565"/>
<path d="M33.2739 29.0868L33.2998 29.1023C33.2273 29.5428 33.0148 29.9833 33.0148 29.9833H30.1957L30.1905 29.947C30.2994 29.9004 30.5999 29.7449 30.5999 29.434V26.6978C30.5999 26.4698 30.3201 26.3402 30.2061 26.2936L30.2165 26.2521H32.8024C32.8024 26.2521 32.963 26.5682 33.134 26.9776L33.1185 26.988C33.0459 26.9206 32.8594 26.8118 32.5951 26.7185C32.3619 26.6356 31.7504 26.62 31.398 26.62C31.2218 26.62 31.1233 26.6252 31.1233 26.6252V27.5943H31.6053C31.8644 27.5943 31.9421 27.3041 31.968 27.1694H31.9939L32.2064 28.3353H32.1805C32.1183 28.211 31.9214 27.9311 31.6053 27.9311H31.1233V29.6102H31.3099C31.6986 29.6102 32.5277 29.5894 32.7972 29.4754C33.0148 29.3666 33.2169 29.1852 33.2739 29.0868ZM40.7636 26.2521L40.7584 26.2987C40.6444 26.3454 40.3904 26.4646 40.3801 26.6822V30.0766L40.3334 30.118L37.3071 27.1331V29.434C37.3071 29.7501 37.6024 29.89 37.7164 29.9366L37.7113 29.9833H36.4779L36.4727 29.9366C36.5867 29.89 36.8821 29.7449 36.8821 29.434V26.6719C36.7577 26.5475 36.6385 26.4387 36.3276 26.3039L36.338 26.2521H37.1879L39.9551 29.0557V26.6978C39.9551 26.4698 39.6805 26.3402 39.5613 26.2936L39.5717 26.2521H40.7636ZM47.1498 26.2521L47.4452 27.1538L47.3986 27.1642C47.2483 26.9776 46.7819 26.5112 45.9476 26.506V29.434C45.9476 29.7501 46.243 29.89 46.357 29.9366L46.3518 29.9833H45.0148L45.0096 29.9366C45.1236 29.89 45.419 29.7449 45.419 29.434V26.506C44.5847 26.5112 44.1234 26.9776 43.9732 27.1642L43.9265 27.1538L44.2219 26.2521H47.1498ZM53.5927 29.0868L53.6187 29.1023C53.5461 29.5428 53.3336 29.9833 53.3336 29.9833H50.5145L50.5093 29.947C50.6182 29.9004 50.9187 29.7449 50.9187 29.434V26.6978C50.9187 26.4698 50.6389 26.3402 50.5249 26.2936L50.5353 26.2521H53.1212C53.1212 26.2521 53.2818 26.5682 53.4528 26.9776L53.4373 26.988C53.3647 26.9206 53.1782 26.8118 52.9139 26.7185C52.6807 26.6356 52.0692 26.62 51.7168 26.62C51.5406 26.62 51.4421 26.6252 51.4421 26.6252V27.5943H51.9241C52.1832 27.5943 52.2609 27.3041 52.2868 27.1694H52.3127L52.5252 28.3353H52.4993C52.4371 28.211 52.2402 27.9311 51.9241 27.9311H51.4421V29.6102H51.6287C52.0174 29.6102 52.8465 29.5894 53.116 29.4754C53.3336 29.3666 53.5357 29.1852 53.5927 29.0868ZM62.238 30.9783L62.2484 31.0145C62.0929 31.056 61.953 31.0767 61.8131 31.0767C60.7611 31.0767 59.8179 29.9988 59.222 29.2578L58.9266 28.9054C58.683 28.6307 58.4498 28.4701 58.2736 28.3561C58.1182 28.2628 57.9679 28.1332 57.8383 27.9726L57.8591 27.9363C57.9523 27.9933 58.1285 28.0814 58.284 28.097C58.683 28.1177 59.1753 27.9156 59.1753 27.3352C59.1753 27.0087 58.9836 26.6252 58.4187 26.6252H57.6725V29.434C57.6725 29.7501 57.9679 29.89 58.0819 29.9366L58.0767 29.9833H56.7397L56.7345 29.9366C56.8485 29.89 57.1439 29.7449 57.1439 29.434V26.6978C57.1439 26.4698 56.8693 26.3402 56.7501 26.2936L56.7604 26.2521H58.5638C59.2893 26.2521 59.7298 26.7289 59.7298 27.2782C59.7298 27.843 59.3567 28.1591 58.9214 28.2732L58.9266 28.2783C59.1131 28.4183 59.3412 28.7033 59.6158 29.0453C59.8853 29.3873 60.2066 29.8019 60.616 30.2009C61.2223 30.7969 61.9789 30.9472 62.238 30.9783ZM66.2591 26.2521L66.5545 27.1538L66.5079 27.1642C66.3576 26.9776 65.8912 26.5112 65.0569 26.506V29.434C65.0569 29.7501 65.3522 29.89 65.4663 29.9366L65.4611 29.9833H64.1241L64.1189 29.9366C64.2329 29.89 64.5283 29.7449 64.5283 29.434V26.506C63.6939 26.5112 63.2327 26.9776 63.0824 27.1642L63.0358 27.1538L63.3312 26.2521H66.2591ZM71.0349 26.1692L72.5636 29.2215C72.7398 29.5998 72.8227 29.7397 73.1233 29.9418L73.1181 29.9833H71.8277L71.8329 29.9366C72.0195 29.8485 72.1594 29.7086 72.0817 29.5221C72.0817 29.5221 71.5894 28.4338 71.5634 28.3716H70.413C70.356 28.5064 70.0451 29.2526 69.9984 29.3562C69.9622 29.4288 69.9466 29.491 69.9466 29.5532C69.9466 29.7345 70.0762 29.8848 70.1798 29.947V29.9833H68.9931L68.9983 29.947C69.2367 29.8174 69.3921 29.6361 69.5528 29.3044C69.9984 28.325 70.5218 27.1849 70.9623 26.2106L71.0349 26.1692ZM70.5788 27.9778H71.3873C71.2473 27.6824 71.123 27.4077 70.9779 27.1072C70.8483 27.4026 70.7084 27.6824 70.5788 27.9778ZM77.3976 26.2521L77.4235 26.2936C77.3043 26.3402 77.04 26.4646 77.0296 26.6822V29.434C77.0296 29.7501 77.325 29.89 77.439 29.9366L77.4338 29.9833H76.0968L76.0917 29.9366C76.2057 29.89 76.5011 29.7449 76.5011 29.434V26.6978C76.5011 26.4698 76.2264 26.3402 76.1072 26.2936L76.1176 26.2521H77.3976ZM85.1157 26.2521L85.1106 26.2987C84.9966 26.3454 84.7426 26.4646 84.7323 26.6822V30.0766L84.6856 30.118L81.6592 27.1331V29.434C81.6592 29.7501 81.9546 29.89 82.0686 29.9366L82.0634 29.9833H80.8301L80.8249 29.9366C80.9389 29.89 81.2343 29.7449 81.2343 29.434V26.6719C81.1099 26.5475 80.9907 26.4387 80.6798 26.3039L80.6902 26.2521H81.54L84.3073 29.0557V26.6978C84.3073 26.4698 84.0327 26.3402 83.9135 26.2936L83.9238 26.2521H85.1157ZM93.6512 29.947L93.6097 29.9833H92.2572L92.2468 29.9418C92.3297 29.9055 92.5163 29.7708 92.5163 29.5635C92.5163 29.5221 92.5111 29.4702 92.4904 29.4184L91.7856 27.2212C91.4177 27.6979 90.8684 28.4131 90.8684 28.4131L90.8269 28.4234C90.8269 28.4234 90.2621 27.6668 89.8786 27.1797C89.6402 27.926 89.3966 28.6722 89.1634 29.4184C89.1427 29.4702 89.1375 29.5221 89.1375 29.5635C89.1375 29.7708 89.3344 29.9107 89.4277 29.9522L89.3759 29.9833H88.0337L88.0233 29.9418C88.1425 29.8952 88.4949 29.6983 88.6089 29.3977L89.4744 26.7133L89.4847 26.6667C89.3448 26.4957 89.2204 26.3972 89.065 26.2884L89.0701 26.2521H89.7542L90.8528 27.7549C91.2156 27.2523 91.5887 26.7548 91.9514 26.2521H92.6303L92.6355 26.2832C92.4697 26.3972 92.3505 26.4905 92.1898 26.7185L92.1846 26.734C92.4645 27.615 92.7599 28.5167 93.0397 29.4029C93.1382 29.7138 93.5165 29.9004 93.6512 29.947ZM99.7718 29.0868L99.7978 29.1023C99.7252 29.5428 99.5127 29.9833 99.5127 29.9833H96.6936L96.6884 29.947C96.7973 29.9004 97.0978 29.7449 97.0978 29.434V26.6978C97.0978 26.4698 96.818 26.3402 96.704 26.2936L96.7144 26.2521H99.3003C99.3003 26.2521 99.4609 26.5682 99.6319 26.9776L99.6164 26.988C99.5438 26.9206 99.3573 26.8118 99.093 26.7185C98.8598 26.6356 98.2483 26.62 97.8959 26.62C97.7197 26.62 97.6212 26.6252 97.6212 26.6252V27.5943H98.1032C98.3623 27.5943 98.44 27.3041 98.4659 27.1694H98.4918L98.7043 28.3353H98.6784C98.6162 28.211 98.4193 27.9311 98.1032 27.9311H97.6212V29.6102H97.8078C98.1965 29.6102 99.0256 29.5894 99.2951 29.4754C99.5127 29.3666 99.7148 29.1852 99.7718 29.0868ZM107.261 26.2521L107.256 26.2987C107.142 26.3454 106.888 26.4646 106.878 26.6822V30.0766L106.831 30.118L103.805 27.1331V29.434C103.805 29.7501 104.1 29.89 104.214 29.9366L104.209 29.9833H102.976L102.971 29.9366C103.085 29.89 103.38 29.7449 103.38 29.434V26.6719C103.256 26.5475 103.136 26.4387 102.826 26.3039L102.836 26.2521H103.686L106.453 29.0557V26.6978C106.453 26.4698 106.178 26.3402 106.059 26.2936L106.07 26.2521H107.261ZM113.648 26.2521L113.943 27.1538L113.896 27.1642C113.746 26.9776 113.28 26.5112 112.445 26.506V29.434C112.445 29.7501 112.741 29.89 112.855 29.9366L112.85 29.9833H111.513L111.507 29.9366C111.621 29.89 111.917 29.7449 111.917 29.434V26.506C111.083 26.5112 110.621 26.9776 110.471 27.1642L110.424 27.1538L110.72 26.2521H113.648Z" fill="#656565"/>
</svg>
