<svg width="12" height="13" viewBox="0 0 12 13" fill="none" xmlns="http://www.w3.org/2000/svg">
<g clip-path="url(#clip0_508_2327)">
<path d="M5.92419 2.29364C5.92697 2.17816 6.07498 2.13573 6.13829 2.23142C6.90061 3.38487 8.19859 4.14424 9.67202 4.14424C10.2244 4.14424 10.7522 4.03724 11.2362 3.84304C10.2728 1.87035 8.27024 0.511387 5.95304 0.500072C2.7004 0.484047 0.025783 3.15766 0.000186288 6.45205C-0.00493306 7.11245 0.095592 7.7488 0.285473 8.34415C1.68538 8.2268 3.05364 7.62625 4.12451 6.54115C5.28612 5.3646 5.88602 3.83502 5.92419 2.29364Z" fill="white"/>
<path d="M5.89572 12.4999C9.14792 12.5155 11.8221 9.84326 11.8481 6.54931C11.8533 5.88891 11.7527 5.25306 11.5633 4.65771C10.163 4.77506 8.79515 5.37561 7.72384 6.46071C6.56217 7.63721 5.96274 9.16681 5.92462 10.7082C5.92179 10.8237 5.77383 10.8661 5.71052 10.7704C4.9482 9.61701 3.65021 8.85761 2.17676 8.85761C1.6248 8.85761 1.09705 8.96416 0.613037 9.15836C1.57687 11.1301 3.57901 12.4886 5.89572 12.4999Z" fill="white"/>
</g>
<defs>
<clipPath id="clip0_508_2327">
<rect width="12" height="13" fill="white"/>
</clipPath>
</defs>
</svg>
