<svg width="100" height="20" viewBox="0 0 100 20" fill="none" xmlns="http://www.w3.org/2000/svg">
<g clip-path="url(#clip0_515_51)">
<path d="M8.66878 4.1947C8.67285 4.02131 8.88942 3.95761 8.98207 4.10128C10.0976 5.83312 11.9969 6.97328 14.1529 6.97328C14.9612 6.97328 15.7335 6.81262 16.4418 6.52104C15.0321 3.55915 12.1017 1.51874 8.711 1.50176C3.95146 1.47769 0.0377279 5.49198 0.000272593 10.4383C-0.00721847 11.4299 0.139878 12.3853 0.417729 13.2792C2.46619 13.103 4.46835 12.2013 6.03534 10.5721C7.73511 8.80558 8.61293 6.509 8.66878 4.1947Z" fill="#656565"/>
<path d="M8.62729 19.5186C13.3862 19.5419 17.2992 15.5298 17.3374 10.5841C17.3449 9.59254 17.1978 8.63784 16.9206 7.74396C14.8715 7.92015 12.87 8.82185 11.3023 10.4511C9.6025 12.2175 8.72536 14.5141 8.66958 16.8285C8.66543 17.0019 8.44894 17.0655 8.35629 16.9218C7.2408 15.1901 5.34147 14.0499 3.1854 14.0499C2.37772 14.0499 1.60546 14.2099 0.897217 14.5014C2.30758 17.4619 5.23728 19.5016 8.62729 19.5186Z" fill="#656565"/>
<path d="M81.9817 5.46362H82.8757C84.1851 5.46362 85.2465 6.5208 85.2465 7.82492V17.0702H81.9817V5.46362Z" fill="#656565"/>
<path d="M24.3242 12.5372C24.3412 13.1475 24.571 13.6646 25.0136 14.0884C25.4732 14.5122 26.2392 14.7241 27.3116 14.7241C28.2989 14.7241 29.0054 14.58 29.4309 14.2918C29.8736 14.0036 30.0948 13.6137 30.0948 13.1221C30.0948 12.8 29.9501 12.5541 29.6608 12.3846C29.3884 12.2151 29.0054 12.0879 28.5117 12.0032C28.018 11.9015 27.2436 11.7913 26.1882 11.6726C24.3498 11.4522 23.1071 10.9606 22.4603 10.1978C21.8304 9.41792 21.5155 8.52786 21.5155 7.52768C21.5155 6.78176 21.7367 6.10365 22.1794 5.49335C22.6219 4.8661 23.2773 4.366 24.1455 3.99303C25.0136 3.62007 26.0605 3.43359 27.2861 3.43359C29.0054 3.43359 30.3587 3.84046 31.346 4.65419C32.3333 5.45097 32.8695 6.48509 32.9546 7.75657H29.7373C29.6863 7.24796 29.465 6.82414 29.0735 6.48509C28.699 6.14603 28.0777 5.9765 27.2095 5.9765C25.5924 5.9765 24.7838 6.43423 24.7838 7.34968C24.7838 7.60395 24.8434 7.81588 24.9625 7.98539C25.0988 8.1549 25.3796 8.30753 25.8052 8.44311C26.2307 8.57876 26.8606 8.68897 27.6947 8.77373C29.482 8.96021 30.8693 9.3755 31.8567 10.0197C32.861 10.647 33.3632 11.5964 33.3632 12.8678C33.3632 14.2749 32.8269 15.3598 31.7546 16.1227C30.6991 16.8856 29.1841 17.267 27.2095 17.267C25.303 17.267 23.822 16.8517 22.7666 16.021C21.7282 15.1733 21.175 14.0121 21.1069 12.5372H24.3242Z" fill="#656565"/>
<path d="M40.3166 3.43359C41.6784 3.43359 42.87 3.73875 43.8913 4.34904C44.9127 4.95934 45.6957 5.79002 46.2404 6.84109C46.7851 7.89215 47.0576 9.06193 47.0576 10.3503C47.0576 11.6387 46.7851 12.8085 46.2404 13.8595C45.6957 14.9106 44.9127 15.7413 43.8913 16.3516C42.87 16.9619 41.6784 17.267 40.3166 17.267C38.9548 17.267 37.7632 16.9619 36.7419 16.3516C35.7205 15.7413 34.9374 14.9106 34.3927 13.8595C33.848 12.8085 33.5757 11.6387 33.5757 10.3503C33.5757 9.06193 33.848 7.89215 34.3927 6.84109C34.9374 5.79002 35.7205 4.95934 36.7419 4.34904C37.7632 3.73875 38.9548 3.43359 40.3166 3.43359ZM40.3166 14.3173C41.389 14.3173 42.2317 13.9443 42.8444 13.1984C43.4743 12.4355 43.7892 11.4862 43.7892 10.3503C43.7892 9.21448 43.4743 8.27359 42.8444 7.52768C42.2317 6.76481 41.389 6.38337 40.3166 6.38337C39.2442 6.38337 38.3931 6.76481 37.7632 7.52768C37.1504 8.27359 36.844 9.21448 36.844 10.3503C36.844 11.4862 37.1504 12.4355 37.7632 13.1984C38.3931 13.9443 39.2442 14.3173 40.3166 14.3173Z" fill="#656565"/>
<path d="M62.4426 3.43359C63.7534 3.43359 64.8173 3.84894 65.6343 4.67962C66.4684 5.5103 66.8855 6.85805 66.8855 8.72283V17.0636H63.6172V9.23144C63.6172 8.21429 63.447 7.4853 63.1065 7.04452C62.7831 6.60375 62.2299 6.38337 61.4468 6.38337C60.7149 6.38337 60.1105 6.74785 59.6339 7.47682C59.1573 8.18884 58.919 9.12972 58.919 10.2994V17.0636H55.6507V9.53661C55.6507 8.41773 55.523 7.61243 55.2677 7.12081C55.0123 6.62919 54.4931 6.38337 53.7101 6.38337C53.1824 6.38337 52.7058 6.57833 52.2802 6.96824C51.8717 7.3412 51.5482 7.87518 51.3099 8.57028C51.0716 9.24841 50.9524 10.0113 50.9524 10.8589V17.0636H47.6841V3.63702H50.9524V4.3999C50.9524 4.70505 50.9184 4.95934 50.8503 5.16277C50.7822 5.36621 50.6715 5.64593 50.5183 6.00194C50.4503 6.13755 50.4162 6.24775 50.4162 6.33251C50.4162 6.43423 50.4758 6.51051 50.5949 6.56137L50.6971 6.5868C50.7992 6.5868 50.8758 6.54442 50.9269 6.45966C50.9779 6.35794 51.0035 6.29861 51.0035 6.28166C51.361 5.38316 51.8546 4.6881 52.4844 4.19647C53.1143 3.68789 53.8632 3.43359 54.7314 3.43359C55.5825 3.43359 56.289 3.67941 56.8508 4.17104C57.4125 4.64572 57.787 5.28144 57.9742 6.07822C58.0253 6.24775 58.153 6.33251 58.3573 6.33251C58.5275 6.33251 58.6466 6.25623 58.7147 6.10365C59.0892 5.25601 59.5999 4.60333 60.2468 4.14561C60.9106 3.67093 61.6426 3.43359 62.4426 3.43359Z" fill="#656565"/>
<path d="M75.9206 3.43359C77.4185 3.43359 78.6019 3.91674 79.4703 4.88305C80.338 5.84936 80.7722 7.26491 80.7722 9.12972V17.0636H77.5036V10.2486C77.5036 8.79069 77.3084 7.78194 76.9164 7.22253C76.5252 6.66309 75.8867 6.38337 75.0016 6.38337C74.3717 6.38337 73.776 6.60375 73.2142 7.04452C72.6695 7.4853 72.2269 8.10408 71.8864 8.90082C71.5459 9.69764 71.3757 10.5961 71.3757 11.5964V17.0636H68.1074V3.63702H71.3757V4.47619C71.3757 4.8661 71.3417 5.19668 71.2736 5.46792C71.2055 5.73917 71.1034 6.01889 70.9672 6.30708C70.8821 6.51051 70.8395 6.64614 70.8395 6.71395C70.8395 6.86652 70.9076 6.95129 71.0438 6.96824H71.1204C71.2396 6.96824 71.3417 6.86652 71.4268 6.66309C71.8013 5.83241 72.3801 5.08648 73.1631 4.42533C73.9462 3.76417 74.8654 3.43359 75.9206 3.43359Z" fill="#656565"/>
<path d="M86.0933 13.3764C86.0933 11.9862 86.5358 10.9606 87.4215 10.2994C88.3238 9.62137 89.5148 9.23992 90.9961 9.15517L92.2979 9.10427C93.4558 9.07041 94.2812 8.99406 94.7749 8.87545C95.2687 8.75676 95.5069 8.46856 95.4903 8.01084C95.473 7.43444 95.277 6.96824 94.9023 6.61224C94.5284 6.25623 93.8221 6.07822 92.7834 6.07822C91.728 6.07822 90.9787 6.2647 90.5362 6.63766C90.0937 6.99367 89.8216 7.4853 89.7191 8.11256H86.5018C86.7234 6.51899 87.4298 5.34077 88.6216 4.57791C89.8126 3.81503 91.2343 3.43359 92.8859 3.43359C94.6898 3.43359 96.1197 3.87437 97.1751 4.75591C98.2304 5.63745 98.7581 7.26491 98.7581 9.63833V17.0636H95.4903V16.1227C95.4903 15.6142 95.6177 15.1225 95.8732 14.6478C95.9411 14.4783 95.975 14.3511 95.975 14.2664C95.975 14.1647 95.9328 14.0969 95.8476 14.0629L95.7451 14.0376C95.6433 14.0376 95.5664 14.0884 95.5152 14.1901C95.4647 14.2749 95.439 14.3257 95.439 14.3427C94.6385 16.2922 93.0902 17.267 90.7918 17.267C89.9573 17.267 89.1749 17.0975 88.4429 16.7584C87.7275 16.4194 87.1576 15.9532 86.7317 15.3598C86.3066 14.7665 86.0933 14.1054 86.0933 13.3764ZM95.4903 10.1469C95.1496 10.5198 94.698 10.7826 94.1365 10.9352C93.5922 11.0708 92.7321 11.198 91.5577 11.3166C90.8257 11.4014 90.2724 11.5964 89.8978 11.9015C89.5405 12.1897 89.3618 12.622 89.3618 13.1984C89.3618 13.69 89.5487 14.0884 89.9234 14.3936C90.3154 14.6987 90.8174 14.8513 91.4303 14.8513C91.6511 14.8513 91.8215 14.8428 91.9406 14.8258C92.9454 14.6902 93.7791 14.2579 94.4433 13.529C95.124 12.8 95.473 11.6726 95.4903 10.1469Z" fill="#656565"/>
<path d="M85.4397 2.10232C85.2845 2.16322 85.1156 2.19667 84.9385 2.19667C84.1831 2.19667 83.5703 1.58676 83.5703 0.834393C83.5703 0.674621 83.5982 0.52127 83.6487 0.378822C83.6381 0.378635 83.6276 0.37854 83.6163 0.37854C82.6084 0.37854 81.7905 1.19254 81.7905 2.19667C81.7905 3.20079 82.6084 4.0148 83.6163 4.0148C84.6249 4.0148 85.442 3.20079 85.442 2.19667C85.442 2.16502 85.4413 2.13356 85.4397 2.10232Z" fill="#656565"/>
</g>
<defs>
<clipPath id="clip0_515_51">
<rect width="99.5034" height="19.5188" fill="white"/>
</clipPath>
</defs>
</svg>
