<svg width="18" height="18" viewBox="0 0 18 18" fill="none" xmlns="http://www.w3.org/2000/svg">
<mask id="mask0_566_716" style="mask-type:alpha" maskUnits="userSpaceOnUse" x="0" y="0" width="18" height="18">
<rect width="18" height="18" fill="#D9D9D9"/>
</mask>
<g mask="url(#mask0_566_716)">
<path d="M6.00008 13.4998L9.00008 11.2123L12.0001 13.4998L10.8751 9.78726L13.8751 7.64976H10.2001L9.00008 3.74976L7.80008 7.64976H4.12508L7.12508 9.78726L6.00008 13.4998ZM9.00008 16.4998C7.96258 16.4998 6.98758 16.3029 6.07508 15.9091C5.16258 15.5154 4.36883 14.981 3.69383 14.306C3.01883 13.631 2.48445 12.8373 2.0907 11.9248C1.69695 11.0123 1.50008 10.0373 1.50008 8.99976C1.50008 7.96226 1.69695 6.98726 2.0907 6.07476C2.48445 5.16226 3.01883 4.36851 3.69383 3.69351C4.36883 3.01851 5.16258 2.48413 6.07508 2.09038C6.98758 1.69663 7.96258 1.49976 9.00008 1.49976C10.0376 1.49976 11.0126 1.69663 11.9251 2.09038C12.8376 2.48413 13.6313 3.01851 14.3063 3.69351C14.9813 4.36851 15.5157 5.16226 15.9094 6.07476C16.3032 6.98726 16.5001 7.96226 16.5001 8.99976C16.5001 10.0373 16.3032 11.0123 15.9094 11.9248C15.5157 12.8373 14.9813 13.631 14.3063 14.306C13.6313 14.981 12.8376 15.5154 11.9251 15.9091C11.0126 16.3029 10.0376 16.4998 9.00008 16.4998ZM9.00008 14.9998C10.6751 14.9998 12.0938 14.4185 13.2563 13.256C14.4188 12.0935 15.0001 10.6748 15.0001 8.99976C15.0001 7.32476 14.4188 5.90601 13.2563 4.74351C12.0938 3.58101 10.6751 2.99976 9.00008 2.99976C7.32508 2.99976 5.90633 3.58101 4.74383 4.74351C3.58133 5.90601 3.00008 7.32476 3.00008 8.99976C3.00008 10.6748 3.58133 12.0935 4.74383 13.256C5.90633 14.4185 7.32508 14.9998 9.00008 14.9998Z" fill="#DFB7A4"/>
</g>
</svg>
